<?xml version="1.0" encoding="UTF-8"?>
<svg id="Layer_2" data-name="Layer 2" xmlns="http://www.w3.org/2000/svg" viewBox="0 0 232.11 39.98">
  <defs>
    <style>
      .cls-1 {
        fill: #fff;
      }
    </style>
  </defs>
  <g id="Layer_1-2" data-name="Layer 1">
    <g>
      <path class="cls-1" d="m13.7,31.61h-4.86v-13.92h-3.99v13.92H0V1.26h4.86v11.93h3.99V1.26h4.86v30.36Z"/>
      <path class="cls-1" d="m29.19,21.68h-8.07c.09,4.77.69,6.29,2,6.29.95,0,1.3-.74,1.95-3.08l3.99,1.34c-1.08,3.47-2.43,5.85-6.11,5.85-4.55,0-6.24-4.68-6.24-11.71,0-7.72,1.73-12.01,6.42-12.01,4.12,0,6.07,4.16,6.07,11.93v1.39Zm-4.42-3.64c-.09-3.82-.61-5.77-1.78-5.77s-1.69,1.47-1.82,5.77h3.6Z"/>
      <path class="cls-1" d="m36.47,31.61h-4.64V2.04l4.64-2.04v31.61Z"/>
      <path class="cls-1" d="m44.37,31.61h-4.64V2.04l4.64-2.04v31.61Z"/>
      <path class="cls-1" d="m60.15,20.17c0,7.2-1.47,11.93-6.59,11.93-4.77,0-6.46-4.6-6.46-11.75s1.26-11.97,6.64-11.97c4.9,0,6.42,4.73,6.42,11.8Zm-4.6.13c0-5.07-.3-7.72-1.91-7.72-1.69,0-1.91,2.78-1.91,7.59s.13,7.72,1.95,7.72c1.65,0,1.86-2.78,1.86-7.59Z"/>
      <path class="cls-1" d="m84.83,16.35c0,10.58-1.73,15.74-7.2,15.74s-6.98-5.07-6.98-15.57,1.69-15.74,7.07-15.74,7.11,5.2,7.11,15.57Zm-5.03.17c0-9.28-.56-11.27-2.12-11.27s-2.04,1.91-2.04,11.1.56,11.27,2.08,11.27,2.08-1.91,2.08-11.1Z"/>
      <path class="cls-1" d="m100.18,20.08c0,8.11-1.52,12.01-4.9,12.01-1.17,0-2.25-.61-3.08-1.47v7.29l-4.6,2.08V8.85h4.6v1.08c.69-.87,1.73-1.56,3.12-1.56,3.82,0,4.86,4.38,4.86,11.71Zm-4.64.17c0-5.85-.39-7.68-1.69-7.68-.65,0-1.21.35-1.65.78v13.66c.43.43.95.78,1.69.78,1.21,0,1.65-1.43,1.65-7.55Z"/>
      <path class="cls-1" d="m115.45,20.08c0,8.11-1.52,12.01-4.9,12.01-1.17,0-2.25-.61-3.08-1.47v7.29l-4.6,2.08V8.85h4.6v1.08c.69-.87,1.73-1.56,3.12-1.56,3.82,0,4.86,4.38,4.86,11.71Zm-4.64.17c0-5.85-.39-7.68-1.69-7.68-.65,0-1.21.35-1.65.78v13.66c.43.43.95.78,1.69.78,1.21,0,1.65-1.43,1.65-7.55Z"/>
      <path class="cls-1" d="m130.19,21.68h-8.07c.09,4.77.69,6.29,2,6.29.95,0,1.3-.74,1.95-3.08l3.99,1.34c-1.08,3.47-2.43,5.85-6.11,5.85-4.55,0-6.24-4.68-6.24-11.71,0-7.72,1.73-12.01,6.42-12.01,4.12,0,6.07,4.16,6.07,11.93v1.39Zm-4.42-3.64c-.09-3.82-.61-5.77-1.78-5.77s-1.69,1.47-1.82,5.77h3.6Z"/>
      <path class="cls-1" d="m144.94,31.61h-4.6V14.79c0-1.43-.26-2.17-1.13-2.17-.74,0-1.26.26-1.86.74v18.26h-4.6V8.85h4.6v1.13c.91-.91,1.91-1.6,3.6-1.6,2.73,0,3.99,1.47,3.99,5.72v17.52Z"/>
      <path class="cls-1" d="m160.08,31.61h-4.6V14.79c0-1.43-.26-2.17-1.13-2.17-.74,0-1.26.26-1.86.74v18.26h-4.6V2.04l4.6-2.04v9.97c.91-.91,1.91-1.6,3.6-1.6,2.73,0,3.99,1.47,3.99,5.72v17.52Z"/>
      <path class="cls-1" d="m175.08,21.68h-8.07c.09,4.77.69,6.29,2,6.29.95,0,1.3-.74,1.95-3.08l3.99,1.34c-1.08,3.47-2.43,5.85-6.11,5.85-4.55,0-6.24-4.68-6.24-11.71,0-7.72,1.73-12.01,6.42-12.01,4.12,0,6.07,4.16,6.07,11.93v1.39Zm-4.42-3.64c-.09-3.82-.61-5.77-1.78-5.77s-1.69,1.47-1.82,5.77h3.6Z"/>
      <path class="cls-1" d="m182.76,2.91c0,1.52-1.17,2.73-2.69,2.73s-2.69-1.21-2.69-2.73,1.17-2.78,2.69-2.78,2.69,1.21,2.69,2.78Zm-.39,28.71h-4.64V8.85h4.64v22.77Z"/>
      <path class="cls-1" d="m205.09,31.61h-4.6V14.7c0-1.39-.22-2.08-1.08-2.08-.69,0-1.26.3-1.82.74v18.26h-4.6V14.7c0-1.39-.22-2.08-1.04-2.08-.74,0-1.26.3-1.82.74v18.26h-4.6V8.85h4.6v1.13c.82-.87,1.86-1.6,3.51-1.6,1.82,0,2.69.48,3.51,1.73,1.21-1.13,2.47-1.73,3.99-1.73,2.69,0,3.95,1.47,3.95,5.59v17.65Z"/>
      <path class="cls-1" d="m220.06,21.68h-8.07c.09,4.77.69,6.29,2,6.29.95,0,1.3-.74,1.95-3.08l3.99,1.34c-1.08,3.47-2.43,5.85-6.11,5.85-4.55,0-6.24-4.68-6.24-11.71,0-7.72,1.73-12.01,6.42-12.01,4.12,0,6.07,4.16,6.07,11.93v1.39Zm-4.42-3.64c-.09-3.82-.61-5.77-1.78-5.77s-1.69,1.47-1.82,5.77h3.6Z"/>
      <path class="cls-1" d="m232.11,8.8l-.61,4.99c-.69-.56-1.3-.82-2.3-.82-.82,0-1.47.3-1.99.87v17.78h-4.6V8.85h4.6v1.13c.78-.95,1.73-1.6,2.95-1.6,1.08,0,1.52.17,1.95.43Z"/>
    </g>
  </g>
</svg>