<svg width="1424" height="96" viewBox="0 0 1424 96" fill="none" xmlns="http://www.w3.org/2000/svg">
<path d="M0 1.94595H66.7124V13.6216H48.9052V94.3135H17.9362V13.6216H0V1.94595Z" fill="white"/>
<path d="M142.089 1.94595H150.993V94.3135H141.444L114.088 55.6541L86.6033 94.3135H77.0545V1.94595H86.3452L114.088 41.1243L142.089 1.94595Z" fill="white"/>
<path d="M213.299 53.0595H191.492L215.234 82.6378V94.3135H163.878V1.94595H213.299V13.6216L190.975 41.3838H213.299V53.0595Z" fill="white"/>
<path d="M309.825 41.3838V53.0595H273.049V94.3135H260.404V1.94595H309.825V13.6216L287.502 41.3838H309.825Z" fill="white"/>
<path d="M320.104 1.94595H389.655V58.1189C389.655 78.6162 374.17 95.2216 354.944 95.2216C335.717 95.2216 320.104 78.6162 320.104 58.1189V1.94595Z" fill="white"/>
<path d="M398.706 1.94595H465.418V13.6216H447.611V94.3135H416.642V13.6216H398.706V1.94595Z" fill="white"/>
<path d="M474.47 1.94595H544.021V58.1189C544.021 78.6162 528.536 95.2216 509.31 95.2216C490.083 95.2216 474.47 78.6162 474.47 58.1189V1.94595Z" fill="white"/>
<path d="M589.718 53.4486L622.365 94.3135H555.652V1.94595H589.718C603.912 1.94595 615.397 13.4919 615.397 27.7622C615.397 42.0324 603.912 53.4486 589.718 53.4486Z" fill="white"/>
<path d="M682.068 53.0595H660.261L684.003 82.6378V94.3135H632.646V1.94595H682.068V13.6216L659.744 41.3838H682.068V53.0595Z" fill="white"/>
<path d="M834.209 1.94595L798.724 95.8703L780.013 46.8324L761.561 96L725.301 1.94595H834.209Z" fill="white"/>
<path d="M818.047 94.3135L857.275 0L896.373 94.3135H818.047Z" fill="white"/>
<path d="M936.692 42.8108C948.434 47.3514 960.177 55.9135 960.177 70.3135C960.177 86.5297 945.596 95.3514 930.24 95.3514C923.014 95.3514 907.917 93.1459 902.884 87.3081L928.305 53.1892C917.336 48 905.078 39.827 905.078 25.6865C905.078 9.34054 918.885 0.908112 934.369 0.908112C944.176 0.908112 954.112 3.8919 962.629 8.82162C936.563 42.8108 936.692 42.8108 936.692 42.8108Z" fill="white"/>
<path d="M1045.66 45.7946C1054.56 49.6865 1060.62 58.6378 1060.62 69.0162C1060.62 83.027 1049.4 94.3135 1035.46 94.3135H1005.27V1.94595H1030.3C1043.85 1.94595 1054.82 12.973 1054.82 26.5946C1054.82 34.3784 1051.2 41.2541 1045.66 45.7946Z" fill="white"/>
<path d="M1104.99 53.4486L1137.63 94.3135H1070.92V1.94595H1104.99C1119.18 1.94595 1130.66 13.4919 1130.66 27.7622C1130.66 42.0324 1119.18 53.4486 1104.99 53.4486Z" fill="white"/>
<path d="M1160.56 1.94595V94.3135H1147.91V1.94595H1160.56Z" fill="white"/>
<path d="M1213.24 53.1892H1262.66C1260.21 76.9297 1240.72 95.3514 1216.98 95.3514C1191.56 95.3514 1170.91 74.2054 1170.91 48.1297C1170.91 22.0541 1191.56 0.908112 1216.98 0.908112C1228.08 0.908112 1238.27 4.92974 1246.14 11.6757L1213.24 53.1892Z" fill="white"/>
<path d="M1338.08 1.94595H1346.98V94.3135H1337.43L1310.08 55.6541L1282.59 94.3135H1273.05V1.94595H1282.34L1310.08 41.1243L1338.08 1.94595Z" fill="white"/>
<path d="M1357.29 1.94595H1424V13.6216H1406.19V94.3135H1375.22V13.6216H1357.29V1.94595Z" fill="white"/>
</svg>
