<svg width="1023" height="128" viewBox="0 0 1023 128" fill="none" xmlns="http://www.w3.org/2000/svg">
<path d="M200.495 99.6136V6.61225H209.5V122.607H121.547V11.9622L193.367 102.106L200.495 111.053V99.6136ZM417.642 59.5537H443.659V67.2272H418.336H409.987L415.218 73.7337L446.262 112.342V122.607H385.204V6.61225H443.659V16.8751L414.526 53.0446L409.284 59.5537H417.642ZM550.569 99.6136V6.61225H559.573V122.607H471.621V11.9623L543.441 102.106L550.569 111.053V99.6136ZM725.543 110.933V114.933H729.543H752.784V122.607H691.9V6.61225H725.543V110.933ZM805.332 59.5537H831.35V67.2272H806.026H797.677L802.909 73.7337L833.952 112.342V122.607H772.895V6.61225H831.35V16.8751L802.217 53.0446L796.974 59.5537H805.332ZM857.255 116.636L889.229 73.7938L892.155 69.8736L887.732 67.7845C872.928 60.7926 858.791 50.7837 858.791 34.4816C858.791 24.7795 862.834 17.6247 869.116 12.7922C875.509 7.87354 884.438 5.21905 894.178 5.21905C905.081 5.21905 916.197 8.13781 926.144 13.131C910.517 33.4802 902.513 43.9529 898.412 49.3445C896.242 52.1984 895.158 53.6369 894.615 54.366C894.346 54.7268 894.196 54.9311 894.109 55.0539C894.071 55.1069 894.015 55.1848 893.961 55.2686C893.947 55.2901 893.862 55.4186 893.771 55.5881C893.756 55.6171 893.583 55.9296 893.459 56.3583L893.455 56.3705C893.414 56.5117 893.187 57.281 893.377 58.2446C893.495 58.8412 893.826 59.7613 894.704 60.5111C895.043 60.7634 895.549 61.0389 895.866 61.1873L895.861 61.201C911.28 67.1533 924.881 77.6857 924.881 94.3891C924.881 103.922 920.647 111.184 914.077 116.172C907.41 121.234 898.24 124 888.626 124C884.082 124 876.892 123.297 870.065 121.651C866.661 120.831 863.448 119.8 860.746 118.56C859.392 117.939 858.228 117.293 857.255 116.636ZM948.078 116.636L980.051 73.7938L982.977 69.8736L978.554 67.7845C963.751 60.7926 949.614 50.7837 949.614 34.4816C949.614 24.7795 953.656 17.6247 959.938 12.7922C966.332 7.87354 975.261 5.21905 985.001 5.21905C995.903 5.21905 1007.02 8.13781 1016.97 13.131C1001.34 33.4802 993.335 43.9529 989.235 49.3445C987.064 52.1984 985.981 53.6369 985.437 54.366C985.169 54.7268 985.019 54.9311 984.931 55.0539C984.893 55.1069 984.838 55.1848 984.783 55.2686C984.769 55.2901 984.684 55.4186 984.594 55.5881C984.578 55.6171 984.405 55.9296 984.281 56.3583L984.278 56.3705C984.236 56.5117 984.01 57.281 984.2 58.2446C984.318 58.8412 984.648 59.7613 985.526 60.5111C985.866 60.7634 986.371 61.0389 986.689 61.1873L986.684 61.201C1002.1 67.1533 1015.7 77.6857 1015.7 94.3891C1015.7 103.922 1011.47 111.184 1004.9 116.172C998.233 121.234 989.062 124 979.449 124C974.904 124 967.715 123.297 960.887 121.651C957.483 120.831 954.27 119.8 951.568 118.56C950.214 117.939 949.05 117.293 948.078 116.636ZM5.99977 122.607L52.7415 10.4155L99.3295 122.607H5.99977ZM234.906 6.61225H262.485C294.242 6.61225 319.909 32.642 319.909 64.6095C319.909 96.577 294.242 122.607 262.485 122.607H234.906V6.61225ZM584.98 6.61225H612.559C644.315 6.61225 669.982 32.642 669.982 64.6095C669.982 96.577 644.315 122.607 612.559 122.607H584.98V6.61225Z" stroke="white" stroke-width="8"/>
</svg>
