<svg width="500" height="96" viewBox="0 0 500 96" fill="none" xmlns="http://www.w3.org/2000/svg">
<path d="M40.7926 46.0435C49.7853 49.9565 55.9107 58.9565 55.9107 69.3913C55.9107 83.4783 44.5721 94.8261 30.4967 94.8261H0V1.95653H25.2836C38.968 1.95653 50.0459 13.0435 50.0459 26.7391C50.0459 34.5652 46.3967 41.4783 40.7926 46.0435Z" fill="white"/>
<path d="M116.225 53.3478H94.1996L118.18 83.087V94.8261H66.3094V1.95653H116.225V13.6957L93.6783 41.6087H116.225V53.3478Z" fill="white"/>
<path d="M175.009 48.5217L204.463 85.1739C196.513 91.9565 186.217 96 175.009 96C149.334 96 128.612 74.7391 128.612 48.5217C128.612 22.3043 149.334 1.04348 175.009 1.04348C186.217 1.04348 196.513 5.08696 204.463 11.8696L175.009 48.5217Z" fill="white"/>
<path d="M210.928 94.8261L250.547 0L290.037 94.8261H210.928Z" fill="white"/>
<path d="M297.916 1.95653H368.163V58.4348C368.163 79.0435 352.524 95.7391 333.105 95.7391C313.686 95.7391 297.916 79.0435 297.916 58.4348V1.95653Z" fill="white"/>
<path d="M411.45 43.0435C423.31 47.6087 435.17 56.2174 435.17 70.6957C435.17 87 420.443 95.8696 404.934 95.8696C397.636 95.8696 382.387 93.6522 377.304 87.7826L402.979 53.4783C391.901 48.2609 379.52 40.0435 379.52 25.8261C379.52 9.39131 393.465 0.913047 409.104 0.913047C419.009 0.913047 429.045 3.91305 437.646 8.86957C411.32 43.0435 411.45 43.0435 411.45 43.0435Z" fill="white"/>
<path d="M498.045 53.3478H476.02L500 83.087V94.8261H448.129V1.95653H498.045V13.6957L475.498 41.6087H498.045V53.3478Z" fill="white"/>
</svg>
