<svg width="407" height="96" viewBox="0 0 407 96" fill="none" xmlns="http://www.w3.org/2000/svg">
<path d="M0 1.95919H67.6488V13.7143H49.5917V94.9551H18.188V13.7143H0V1.95919Z" fill="white"/>
<path d="M144.084 1.95919H153.112V94.9551H143.43L115.69 56.0327L87.8189 94.9551H78.1361V1.95919H87.5573L115.69 41.4041L144.084 1.95919Z" fill="white"/>
<path d="M162.252 94.9551L202.031 0L241.678 94.9551H162.252Z" fill="white"/>
<path d="M243.169 1.95919H310.818V13.7143H292.761V94.9551H261.357V13.7143H243.169V1.95919Z" fill="white"/>
<path d="M328.633 3.52653C334.128 3.52653 338.577 7.96735 338.577 13.4531C338.577 14.8898 338.054 17.1102 336.876 19.0694L328.895 31.6082H321.305L326.408 23.249C321.96 22.2041 318.688 18.2857 318.688 13.4531C318.688 7.96735 323.137 3.52653 328.633 3.52653Z" fill="white"/>
<path d="M380.699 43.102C392.607 47.6735 404.514 56.2939 404.514 70.7918C404.514 87.1184 389.728 96 374.157 96C366.829 96 351.52 93.7796 346.417 87.902L372.194 53.551C361.072 48.3265 348.641 40.098 348.641 25.8612C348.641 9.40408 362.642 0.914289 378.344 0.914289C388.289 0.914289 398.364 3.91837 407 8.88163C380.569 43.102 380.699 43.102 380.699 43.102Z" fill="white"/>
</svg>
