<svg width="1354" height="112" viewBox="0 0 1354 112" fill="none" xmlns="http://www.w3.org/2000/svg">
<path d="M31.8554 49.8917H56.0981V59.5318H32.4621H28.2757L30.9063 62.7885L58.3735 96.7935V107.727H2V3.81868H56.0981V14.7509L30.3006 46.6337L27.6644 49.8917H31.8554ZM205.62 49.8917H229.863V59.5318H206.227H202.04L204.671 62.7885L232.138 96.7935V107.727H175.765V3.81868H229.863V14.7509L204.065 46.6337L201.429 49.8917H205.62ZM289.361 59.9865H285.187L287.802 63.2396L323.565 107.727H251.314V3.81868H289.361C304.944 3.81868 317.548 16.4134 317.548 31.9784C317.548 47.5302 304.958 59.9865 289.361 59.9865ZM327.039 3.81868H415.688L377.108 50.8671L376.655 51.4202V52.1353V107.727H365.789V52.1353V51.4242L365.34 50.8727L327.039 3.81868ZM601.498 86.2355V3.81868H612.364V107.727H532.478V5.69953L597.937 87.4852L601.498 91.935V86.2355ZM661.437 49.8917H685.68V59.5318H662.044H657.858L660.488 62.7885L687.956 96.7935V107.727H631.582V3.81868H685.68V14.7509L659.883 46.6337L657.246 49.8917H661.437ZM761.106 13.4587H742.021V3.81868H816.446V13.4587H797.512H795.512V15.4587V107.727H763.106V15.4587V13.4587H761.106ZM975.224 96.0866V98.0866H977.224H999.039V107.727H942.818V3.81868H975.224V96.0866ZM1194.64 63.243L1241.14 5.65992V107.727H1145.02V5.65992L1191.53 63.243L1193.08 65.1698L1194.64 63.243ZM1290.13 49.8917H1314.37V59.5318H1290.74H1286.55L1289.18 62.7885L1316.65 96.7935V107.727H1260.28V3.81868H1314.37V14.7509L1288.58 46.6337L1285.94 49.8917H1290.13ZM160.071 3.81868L116.965 106.812L74.0004 3.81868H160.071ZM516.277 55.9242C516.277 85.3207 492.863 109.091 464.274 109.091C435.53 109.091 412.12 85.317 412.12 55.9242C412.12 26.5386 435.523 2.90933 464.274 2.90933C492.871 2.90933 516.277 26.535 516.277 55.9242ZM926.616 55.9242C926.616 85.3207 903.203 109.091 874.613 109.091C845.869 109.091 822.459 85.317 822.459 55.9242C822.459 26.5386 845.862 2.90933 874.613 2.90933C903.21 2.90933 926.616 26.535 926.616 55.9242ZM1013.63 3.81868H1039.24C1067.85 3.81868 1090.93 27.1592 1090.93 55.7727C1090.93 84.3861 1067.85 107.727 1039.24 107.727H1013.63V3.81868ZM1352 98.8146C1352 104.242 1347.72 108.484 1342.47 108.484C1337.19 108.484 1332.79 104.208 1332.79 98.8146C1332.79 93.5893 1337.17 89.2963 1342.47 89.2963C1347.74 89.2963 1352 93.5555 1352 98.8146Z" stroke="white" stroke-width="4"/>
</svg>
