<svg width="1258" height="96" viewBox="0 0 1258 96" fill="none" xmlns="http://www.w3.org/2000/svg">
<path d="M12.805 1.95919V94.9551H0V1.95919H12.805Z" fill="white"/>
<path d="M55.9555 1.95919H123.508V13.7143H105.477V94.9551H74.1178V13.7143H55.9555V1.95919Z" fill="white"/>
<path d="M199.835 1.95919H208.851V94.9551H199.182L171.481 56.0327L143.65 94.9551H133.981V1.95919H143.389L171.481 41.4041L199.835 1.95919Z" fill="white"/>
<path d="M234.703 1.95919V94.9551H221.898V1.95919H234.703Z" fill="white"/>
<path d="M307.253 1.95919H320.058V94.9551H247.801V0.391839L307.253 74.7102V1.95919Z" fill="white"/>
<path d="M391.05 14.1061L363.611 48.3265L400.85 94.9551H333.166V1.95919H391.05V14.1061Z" fill="white"/>
<path d="M455.453 1.95919V94.9551H442.648V1.95919H455.453Z" fill="white"/>
<path d="M499.91 1.95919H570.337V58.5143C570.337 79.151 554.658 95.8694 535.189 95.8694C515.72 95.8694 499.91 79.151 499.91 58.5143V1.95919Z" fill="white"/>
<path d="M641.567 1.95919H654.372V94.9551H582.115V0.391839L641.567 74.7102V1.95919Z" fill="white"/>
<path d="M667.48 1.95919H691.261C716.871 1.95919 737.516 22.8571 737.516 48.4571C737.516 74.0571 716.871 94.9551 691.261 94.9551H667.48V1.95919Z" fill="white"/>
<path d="M798.041 53.4204H775.959L800.001 83.2V94.9551H747.997V1.95919H798.041V13.7143L775.436 41.6653H798.041V53.4204Z" fill="white"/>
<path d="M847.568 53.8122L880.626 94.9551H813.073V1.95919H847.568C861.941 1.95919 873.57 13.5837 873.57 27.951C873.57 42.3184 861.941 53.8122 847.568 53.8122Z" fill="white"/>
<path d="M922.658 43.102C934.548 47.6735 946.438 56.2939 946.438 70.7918C946.438 87.1184 931.673 96 916.124 96C908.807 96 893.52 93.7796 888.424 87.902L914.165 53.551C903.058 48.3265 890.645 40.098 890.645 25.8612C890.645 9.40408 904.626 0.914289 920.306 0.914289C930.236 0.914289 940.297 3.91837 948.921 8.88163C922.527 43.102 922.658 43.102 922.658 43.102Z" fill="white"/>
<path d="M956.818 1.95919H1024.37V13.7143H1006.34V94.9551H974.98V13.7143H956.818V1.95919Z" fill="white"/>
<path d="M1014.08 94.9551L1053.8 0L1093.39 94.9551H1014.08Z" fill="white"/>
<path d="M1162.05 1.95919H1174.86V94.9551H1102.6V0.391839L1162.05 74.7102V1.95919Z" fill="white"/>
<path d="M1187.96 1.95919H1211.75C1237.36 1.95919 1258 22.8571 1258 48.4571C1258 74.0571 1237.36 94.9551 1211.75 94.9551H1187.96V1.95919Z" fill="white"/>
</svg>
