<svg width="610" height="96" viewBox="0 0 610 96" fill="none" xmlns="http://www.w3.org/2000/svg">
<path d="M384.909 48.3274C384.909 74.6521 363.835 96 338.02 96C312.074 96 291 74.6521 291 48.3274C291 22.0027 312.074 0.785809 338.02 0.785809C363.835 0.785809 384.909 22.0027 384.909 48.3274Z" fill="white"/>
<path d="M455.431 1.57163H468.339V94.8213H395.503V0L455.431 74.5211V1.57163Z" fill="white"/>
<path d="M513.162 83.0341H533.841V94.8213H481.552V1.57163H513.162V83.0341Z" fill="white"/>
<path d="M525.706 1.57163H610L574.175 45.0532V94.8213H561.267V45.0532L525.706 1.57163Z" fill="white"/>
<path d="M0 0H69.7392V12.1348H51.1241V96H18.75V12.1348H0V0Z" fill="white"/>
<path d="M148.536 0H157.844V96H147.862L119.265 55.8202L90.5326 96H80.5506V0H90.2628L119.265 40.7191L148.536 0Z" fill="white"/>
<path d="M222.977 53.1236H200.18L225 83.8652V96H171.313V0H222.977V12.1348L199.64 40.9888H222.977V53.1236Z" fill="white"/>
</svg>
