<svg width="471" height="107" viewBox="0 0 471 107" fill="none" xmlns="http://www.w3.org/2000/svg">
<path d="M122.847 0.878255L82.82 106.854L61.7147 51.5239L40.9006 107L0 0.878255H122.847Z" fill="white"/>
<path d="M226.483 53.1341C226.483 82.5554 203.194 106.415 174.665 106.415C145.991 106.415 122.703 82.5554 122.703 53.1341C122.703 23.7127 145.991 0 174.665 0C203.194 0 226.483 23.7127 226.483 53.1341Z" fill="white"/>
<path d="M276.617 58.9891L313.442 105.097H238.19V0.878255H276.617C292.628 0.878255 305.582 13.9056 305.582 30.0068C305.582 46.1081 292.628 58.9891 276.617 58.9891Z" fill="white"/>
<path d="M359.972 91.9234H382.824V105.097H325.039V0.878255H359.972V91.9234Z" fill="white"/>
<path d="M392.983 0.878255H419.474C448.003 0.878255 471 24.2982 471 52.9877C471 81.6772 448.003 105.097 419.474 105.097H392.983V0.878255Z" fill="white"/>
</svg>
