<svg width="464" height="107" viewBox="0 0 464 107" fill="none" xmlns="http://www.w3.org/2000/svg">
<path d="M94.8304 1.95881V1.22426H128.716V1.83638C119.94 2.20366 114.577 12.4874 109.579 27.4233L82.6414 107H81.7882L64.236 61.9474L48.9998 107H48.1466L10.3607 9.91647C8.5323 5.50915 4.99749 1.83638 0 1.83638V1.22426H28.5223V1.83638C22.3059 1.83638 21.4526 4.65217 23.5248 9.91647L54.3629 89.3707L63.9923 61.0904L44.0023 9.91647C42.1739 5.50915 38.6391 1.83638 33.6416 1.83638V1.22426H62.1639V1.83638C55.9475 1.83638 55.0943 4.65217 57.1664 9.91647L88.0046 89.3707L106.288 35.381C111.286 20.8124 116.771 1.95881 94.8304 1.95881Z" fill="white"/>
<path d="M177.471 104.429C126.277 118.263 98.3643 16.5275 150.168 2.57093C201.605 -11.2632 229.274 90.595 177.471 104.429ZM163.819 107C192.463 107 215.866 83.6167 215.866 53.5C215.866 23.5057 192.463 0 163.819 0C135.053 0 111.772 23.5057 111.772 53.5C111.772 83.6167 135.053 107 163.819 107Z" fill="white"/>
<path d="M213.069 105.776V105.164C218.311 105.041 220.748 104.184 220.748 96.9611V9.91647C220.627 2.44851 217.336 1.83638 213.069 1.83638V1.22426H257.803C298.271 1.22426 307.412 61.5801 259.997 65.865L250.612 65.7426V65.9874C279.987 69.4153 283.278 105.164 298.271 105.164V105.776H257.072V105.164C286.325 104.919 279.987 65.865 243.298 65.9874H232.938V97.206C233.059 104.429 236.35 105.164 240.617 105.164V105.776H213.069ZM232.938 9.91647V65.2529H256.584C289.616 65.2529 285.106 1.83638 257.803 1.83638H240.617C236.594 1.83638 233.059 2.69336 232.938 9.91647Z" fill="white"/>
<path d="M295.202 105.776V105.164C300.566 105.164 302.881 104.307 302.881 96.9611V9.91647C302.76 2.69336 299.468 1.95881 295.202 1.83638V1.22426H322.749V1.83638C318.483 1.83638 315.192 2.44851 315.07 9.91647V96.9611C315.07 104.307 317.386 105.164 322.749 105.164H342.496C356.879 104.674 367.361 99.1648 373.578 71.8638H374.187L366.508 105.776H295.202Z" fill="white"/>
<path d="M372.217 105.776V105.164C377.58 105.164 379.774 104.551 379.774 97.206V9.91647C379.652 2.81579 375.995 1.83638 372.217 1.83638V1.22426H411.953C440.597 1.22426 464 24.73 464 53.5C464 82.3924 440.597 105.776 411.953 105.776H372.217ZM406.59 105.164H410.003C464.488 104.796 466.194 1.83638 412.684 1.83638H408.296C393.913 1.95881 391.963 2.93821 391.963 9.91647V97.0835C391.963 104.062 394.279 105.041 406.59 105.164Z" fill="white"/>
</svg>
