<svg width="652" height="96" viewBox="0 0 652 96" fill="none" xmlns="http://www.w3.org/2000/svg">
<path d="M12.9652 1.0535V94.8148H0V1.0535H12.9652Z" fill="white"/>
<path d="M100.049 53.07H150.719C148.206 77.1687 128.229 95.8683 103.886 95.8683C77.8232 95.8683 56.6555 74.4033 56.6555 47.9342C56.6555 21.465 77.8232 0 103.886 0C115.263 0 125.715 4.08231 133.785 10.93L100.049 53.07Z" fill="white"/>
<path d="M253.05 48.0658C253.05 74.535 231.882 96 205.952 96C179.889 96 158.721 74.535 158.721 48.0658C158.721 21.5967 179.889 0.263371 205.952 0.263371C231.882 0.263371 253.05 21.5967 253.05 48.0658Z" fill="white"/>
<path d="M253.423 1.0535H321.821V12.9053H303.564V94.8148H271.812V12.9053H253.423V1.0535Z" fill="white"/>
<path d="M432.177 1.0535H441.305V94.8148H431.515L403.468 55.572L375.289 94.8148H365.499V1.0535H375.024L403.468 40.823L432.177 1.0535Z" fill="white"/>
<path d="M505.186 52.9383H482.827L507.17 82.963V94.8148H454.515V1.0535H505.186V12.9053L482.298 41.0864H505.186V52.9383Z" fill="white"/>
<path d="M555.333 53.3333L588.804 94.8148H520.406V1.0535H555.333C569.885 1.0535 581.66 12.7737 581.66 27.2593C581.66 41.7449 569.885 53.3333 555.333 53.3333Z" fill="white"/>
<path d="M650.016 52.9383H627.657L652 82.963V94.8148H599.345V1.0535H650.016V12.9053L627.128 41.0864H650.016V52.9383Z" fill="white"/>
</svg>
