<svg width="1300" height="128" viewBox="0 0 1300 128" fill="none" xmlns="http://www.w3.org/2000/svg">
<path d="M69.3314 61.0356L48.3795 116.767L5.83266 6.5946H139.671L98.0475 116.575L76.8119 61.0152L73.0446 51.1586L69.3314 61.0356ZM242.603 115.841L274.345 73.3114L277.271 69.3911L272.848 67.302C258.143 60.3572 244.117 50.4223 244.117 34.2486C244.117 24.6208 248.128 17.5221 254.362 12.7272C260.707 7.8462 269.57 5.21082 279.24 5.21082C290.054 5.21082 301.08 8.10296 310.95 13.0518C295.441 33.2464 287.496 43.6418 283.424 48.9947C281.268 51.8293 280.192 53.2582 279.652 53.9825C279.385 54.3409 279.236 54.544 279.149 54.6662C279.111 54.7189 279.056 54.7966 279.001 54.8804L278.999 54.8834C278.981 54.912 278.899 55.037 278.812 55.1999C278.797 55.2289 278.623 55.5415 278.5 55.9703L278.496 55.9825C278.454 56.1235 278.228 56.8932 278.418 57.8572C278.536 58.4539 278.867 59.3739 279.745 60.1233C280.084 60.3754 280.59 60.6507 280.907 60.799L280.902 60.8127C296.215 66.7239 309.71 77.1787 309.71 93.7514C309.71 103.21 305.509 110.415 298.989 115.366C292.372 120.39 283.269 123.135 273.725 123.135C269.213 123.135 262.074 122.437 255.294 120.803C251.914 119.989 248.724 118.965 246.043 117.735C244.71 117.123 243.563 116.488 242.603 115.841ZM410.127 59.1784H435.944V66.7459H410.817H402.468L407.7 73.2525L438.529 111.593V121.751H377.934V6.5946H435.944V16.7515L407.012 52.6692L401.769 59.1784H410.127ZM510.073 58.6239L508.537 60.8638L510.052 63.1181L549.467 121.751H462.11L501.525 63.1181L503.04 60.8638L501.504 58.6239L465.815 6.5946H545.762L510.073 58.6239ZM581.894 71.4378V121.751H573.004V6.5946H611.401C627.952 6.5946 641.526 20.1715 641.526 37.0162C641.526 53.8609 627.952 67.4378 611.401 67.4378H585.894H581.894V71.4378ZM695.579 59.1784H721.395V66.7459H696.268H687.919L693.151 73.2525L723.98 111.593V121.751H663.386V6.5946H721.395V16.7515L692.464 52.6692L687.22 59.1784H695.579ZM790.723 67.2649H782.398L787.6 73.7642L826.002 121.751H749.223V6.5946H790.723C807.458 6.5946 821.02 20.1847 821.02 37.0162C821.02 53.8215 807.485 67.2649 790.723 67.2649ZM918.419 59.1784H944.235V66.7459H919.108H910.759L915.991 73.2525L946.82 111.593V121.751H886.226V6.5946H944.235V16.7515L915.304 52.6692L910.061 59.1784H918.419ZM1050.48 98.9405V6.5946H1059.37V121.751H972.063V11.9583L1043.35 101.433L1050.48 110.38V98.9405ZM1135.45 61.8446L1133.44 64.3459L1135.45 66.8473L1171.89 112.326C1162.56 119.256 1151.03 123.308 1138.57 123.308C1106.93 123.308 1081.21 97.0055 1081.21 64.3459C1081.21 31.6863 1106.93 5.38379 1138.57 5.38379C1151.03 5.38379 1162.56 9.4364 1171.89 16.3662L1135.45 61.8446ZM1227.43 59.1784H1253.25V66.7459H1228.12H1219.77L1225.01 73.2525L1255.83 111.592V121.751H1195.24V6.5946H1253.25V16.7515L1224.32 52.6692L1219.08 59.1784H1227.43ZM129.875 121.751L176.263 10.415L222.498 121.751H129.875ZM860.949 6.5946V121.751H852.059V6.5946H860.949ZM1296 113.297C1296 118.574 1291.88 122.616 1286.9 122.616C1281.85 122.616 1277.63 118.506 1277.63 113.297C1277.63 108.296 1281.82 104.151 1286.9 104.151C1291.92 104.151 1296 108.228 1296 113.297Z" stroke="white" stroke-width="8"/>
</svg>
