<svg width="273" height="96" viewBox="0 0 273 96" fill="none" xmlns="http://www.w3.org/2000/svg">
<path d="M12.8383 1.57377V94.9508H0V1.57377H12.8383Z" fill="white"/>
<path d="M57.6733 42.8852C69.5946 47.4754 81.5159 56.1312 81.5159 70.6885C81.5159 87.082 66.7125 96 51.1231 96C43.7869 96 28.4595 93.7705 23.3503 87.8689L49.158 53.3771C38.0227 48.1311 25.5774 39.8689 25.5774 25.5738C25.5774 9.04918 39.5948 0.524591 55.3152 0.524591C65.2715 0.524591 75.3587 3.54098 84.005 8.52459C57.5423 42.8852 57.6733 42.8852 57.6733 42.8852Z" fill="white"/>
<path d="M154.149 1.57377H166.987V94.9508H94.5425V0L154.149 74.6229V1.57377Z" fill="white"/>
<path d="M187.466 3.14754C192.968 3.14754 197.422 7.60656 197.422 13.1148C197.422 14.5574 196.898 16.7869 195.719 18.7541L187.728 31.3443H180.13L185.239 22.9508C180.785 21.9016 177.51 17.9672 177.51 13.1148C177.51 7.60656 181.964 3.14754 187.466 3.14754Z" fill="white"/>
<path d="M205.271 1.57377H273V13.377H254.922V94.9508H223.481V13.377H205.271V1.57377Z" fill="white"/>
</svg>
