<svg width="169" height="96" viewBox="0 0 169 96" fill="none" xmlns="http://www.w3.org/2000/svg">
<path d="M12.1683 30.5158C8.22184 30.5158 4.93311 27.2579 4.93311 23.3484C4.93311 19.3303 8.22184 16.181 12.1683 16.181C16.2244 16.181 19.4036 19.3303 19.4036 23.3484C19.4036 27.2579 16.2244 30.5158 12.1683 30.5158ZM0 93.8281V93.2851C4.38498 93.2851 6.90635 92.4163 6.90635 86.009V46.371C6.79672 40.8326 6.79672 40.2896 0 43.0045V42.4615L17.8688 35.1855V86.009C17.8688 92.4163 20.3902 93.2851 24.7752 93.2851V93.8281H0Z" fill="white"/>
<path d="M27.3762 96H26.828L24.0874 70.371H24.5259C27.2665 90.4615 38.7771 94.371 48.0952 94.371C61.7983 94.371 68.595 82.6425 52.0417 73.7376L32.7478 63.4208C21.2372 57.2308 25.2933 35.1855 44.8065 35.1855C53.7957 35.1855 60.1539 39.095 61.9079 33.991H62.5657L65.3063 56.905H64.7582C62.7849 40.3982 53.3572 35.7285 44.8065 35.7285C29.5687 35.7285 27.8147 49.1946 41.5177 56.0362L55.9882 63.3122C74.9532 72.8688 68.1565 94.914 48.0952 94.914C37.0231 94.914 27.5954 90.7873 27.3762 96Z" fill="white"/>
<path d="M116.58 52.6697V86.009C116.58 91.4389 118.224 93.2851 123.486 93.2851V93.8281H99.8072V93.2851C105.069 93.2851 105.617 91.4389 105.617 86.009V53.8643C105.617 34.5339 97.0666 34.2081 84.679 40.6154V86.009C84.679 92.4163 87.2004 93.2851 91.5853 93.2851V93.8281H66.4813V93.2851C70.647 93.2851 73.3877 92.6335 73.3877 86.009V45.0679C73.3877 43.8733 73.278 41.7014 71.524 41.7014C70.2085 41.7014 67.9064 42.8959 66.4813 43.3303V42.7873L84.679 35.1855V39.638C101.671 32.362 116.58 32.1448 116.58 52.6697Z" fill="white"/>
<path d="M121.936 25.5204V24.9774C130.925 22.2624 136.516 14.552 136.845 8.57918C135.968 10.6425 134.104 12.2715 131.144 12.2715C122.813 12.2715 122.703 0 131.144 0C132.57 0 133.666 0.325788 134.872 1.08597C142.765 6.08145 134.543 22.2624 121.936 25.5204Z" fill="white"/>
<path d="M168.671 81.9909L169 82.4253C150.035 105.231 144.006 92.9593 144.006 75.5837V35.7285H138.744V35.1855H144.006V22.4796L154.968 17.81V35.1855H162.751V35.7285H154.968V76.1267C154.968 84.9231 153.214 100.778 168.671 81.9909Z" fill="white"/>
</svg>
