<svg width="728" height="107" viewBox="0 0 728 107" fill="none" xmlns="http://www.w3.org/2000/svg">
<path d="M94.924 1.95881V1.22426H128.843V1.83638C120.058 2.20366 114.69 12.4874 109.687 27.4233L82.723 107H81.8689L64.2994 61.9474L49.0481 107H48.1941L10.3709 9.91647C8.54072 5.50915 5.00242 1.83638 0 1.83638V1.22426H28.5504V1.83638C22.3279 1.83638 21.4738 4.65217 23.548 9.91647L54.4166 89.3707L64.0554 61.0904L44.0457 9.91647C42.2156 5.50915 38.6773 1.83638 33.6748 1.83638V1.22426H62.2252V1.83638C56.0027 1.83638 55.1486 4.65217 57.2228 9.91647L88.0914 89.3707L106.393 35.381C111.395 20.8124 116.886 1.95881 94.924 1.95881Z" fill="white"/>
<path d="M243.532 104.429C192.287 118.263 164.347 16.5275 216.201 2.57093C267.69 -11.2632 295.386 90.595 243.532 104.429ZM229.866 107C258.539 107 281.965 83.6167 281.965 53.5C281.965 23.5057 258.539 0 229.866 0C201.072 0 177.768 23.5057 177.768 53.5C177.768 83.6167 201.072 107 229.866 107Z" fill="white"/>
<path d="M345.051 105.776V105.164C350.297 105.041 352.737 104.184 352.737 96.9611V9.91647C352.615 2.44851 349.321 1.83638 345.051 1.83638V1.22426H389.829C430.336 1.22426 439.487 61.5801 392.025 65.865L382.63 65.7426V65.9874C412.034 69.4153 415.329 105.164 430.336 105.164V105.776H389.096V105.164C418.379 104.919 412.034 65.865 375.309 65.9874H364.938V97.206C365.06 104.429 368.355 105.164 372.625 105.164V105.776H345.051ZM364.938 9.91647V65.2529H388.608C421.673 65.2529 417.159 1.83638 389.829 1.83638H372.625C368.599 1.83638 365.06 2.69336 364.938 9.91647Z" fill="white"/>
<path d="M493.15 105.776V105.164C498.519 105.164 500.837 104.307 500.837 96.9611V9.91647C500.715 2.69336 497.421 1.95881 493.15 1.83638V1.22426H520.725V1.83638C516.454 1.83638 513.16 2.44851 513.038 9.91647V96.9611C513.038 104.307 515.356 105.164 520.725 105.164H540.49C554.887 104.674 565.38 99.1648 571.603 71.8638H572.213L564.526 105.776H493.15Z" fill="white"/>
<path d="M636.126 105.776V105.164C641.495 105.164 643.691 104.551 643.691 97.206V9.91647C643.569 2.81579 639.909 1.83638 636.126 1.83638V1.22426H675.902C704.574 1.22426 728 24.73 728 53.5C728 82.3924 704.574 105.776 675.902 105.776H636.126ZM670.533 105.164H673.949C728.488 104.796 730.196 1.83638 676.634 1.83638H672.241C657.844 1.95881 655.892 2.93821 655.892 9.91647V97.0835C655.892 104.062 658.21 105.041 670.533 105.164Z" fill="white"/>
</svg>
