<svg width="616" height="107" viewBox="0 0 616 107" fill="none" xmlns="http://www.w3.org/2000/svg">
<path d="M57.9138 50.1199L40.8136 95.7382L5.82657 4.87825H116.952L82.7272 95.573L65.3971 50.0995L61.6284 40.2106L57.9138 50.1199ZM349.08 54.9891H340.771L345.953 61.4839L377.562 101.097H314.688V4.87825H349.08C362.843 4.87825 374.019 16.0901 374.019 30.0068C374.019 43.8973 362.869 54.9891 349.08 54.9891ZM464.716 91.9234V95.9234H468.716H487.548V101.097H437.815V4.87825H464.716V91.9234ZM258.635 53.1341C258.635 80.4511 237.055 102.414 210.864 102.414C184.521 102.414 162.948 80.4437 162.948 53.1341C162.948 25.8389 184.507 4 210.864 4C237.069 4 258.635 25.8315 258.635 53.1341ZM542.053 4.87825H564.52C590.76 4.87825 612 26.4532 612 52.9877C612 79.5222 590.76 101.097 564.52 101.097H542.053V4.87825Z" stroke="white" stroke-width="8"/>
</svg>
