<svg width="1283" height="64" viewBox="0 0 1283 64" fill="none" xmlns="http://www.w3.org/2000/svg">
<path d="M8.50172 1.30435V63.2174H0V1.30435H8.50172Z" fill="white"/>
<path d="M38.886 1.30435H54.6749C71.6783 1.30435 85.3852 15.2174 85.3852 32.2609C85.3852 49.3043 71.6783 63.2174 54.6749 63.2174H38.886V1.30435Z" fill="white"/>
<path d="M152.463 32.3478C152.463 49.8261 138.583 64 121.579 64C104.489 64 90.6086 49.8261 90.6086 32.3478C90.6086 14.8696 104.489 0.782609 121.579 0.782609C138.583 0.782609 152.463 14.8696 152.463 32.3478Z" fill="white"/>
<path d="M198.913 1.30435H207.415V63.2174H159.441V0.260871L198.913 49.7391V1.30435Z" fill="white"/>
<path d="M220.976 2.34783C224.62 2.34783 227.569 5.30435 227.569 8.95653C227.569 9.91305 227.222 11.3913 226.442 12.6957L221.15 21.0435H216.118L219.501 15.4783C216.552 14.7826 214.383 12.1739 214.383 8.95653C214.383 5.30435 217.333 2.34783 220.976 2.34783Z" fill="white"/>
<path d="M232.767 1.30435H277.618V9.13044H265.646V63.2174H244.826V9.13044H232.767V1.30435Z" fill="white"/>
<path d="M329.162 35.8261L351.11 63.2174H306.259V1.30435H329.162C338.704 1.30435 346.425 9.04348 346.425 18.6087C346.425 28.1739 338.704 35.8261 329.162 35.8261Z" fill="white"/>
<path d="M391.248 35.5652H376.587L392.55 55.3913V63.2174H358.022V1.30435H391.248V9.13044L376.24 27.7391H391.248V35.5652Z" fill="white"/>
<path d="M430.378 32.3478L449.984 56.7826C444.692 61.3043 437.838 64 430.378 64C413.287 64 399.494 49.8261 399.494 32.3478C399.494 14.8696 413.287 0.695654 430.378 0.695654C437.838 0.695654 444.692 3.39131 449.984 7.91304L430.378 32.3478Z" fill="white"/>
<path d="M517.009 32.3478C517.009 49.8261 503.128 64 486.125 64C469.035 64 455.154 49.8261 455.154 32.3478C455.154 14.8696 469.035 0.782609 486.125 0.782609C503.128 0.782609 517.009 14.8696 517.009 32.3478Z" fill="white"/>
<path d="M550.706 35.6522H583.932C582.284 51.5652 569.185 63.913 553.222 63.913C536.132 63.913 522.252 49.7391 522.252 32.2609C522.252 14.7826 536.132 0.608698 553.222 0.608698C560.683 0.608698 567.536 3.30435 572.828 7.82609L550.706 35.6522Z" fill="white"/>
<path d="M630.387 1.30435H638.889V63.2174H590.915V0.260871L630.387 49.7391V1.30435Z" fill="white"/>
<path d="M656.093 1.30435V63.2174H647.592V1.30435H656.093Z" fill="white"/>
<path d="M666.091 1.30435H709.12V63.2174H663.055L701.833 9.39131H666.091V1.30435Z" fill="white"/>
<path d="M751.05 35.5652H736.389L752.351 55.3913V63.2174H717.824V1.30435H751.05V9.13044L736.042 27.7391H751.05V35.5652Z" fill="white"/>
<path d="M791.22 1.30435V63.2174H782.718V1.30435H791.22Z" fill="white"/>
<path d="M798.181 1.30435H843.032V9.13044H831.06V63.2174H810.24V9.13044H798.181V1.30435Z" fill="white"/>
<path d="M869.071 63.2174L895.443 0L921.729 63.2174H869.071Z" fill="white"/>
<path d="M967.314 1.30435H975.816V63.2174H927.842V0.260871L967.314 49.7391V1.30435Z" fill="white"/>
<path d="M981.916 1.30435H1037.44L1013.84 30.1739V63.2174H1005.34V30.1739L981.916 1.30435Z" fill="white"/>
<path d="M1043.48 0.260871L1072.11 35.8261L1100.74 0.260871V63.2174H1043.48V0.260871Z" fill="white"/>
<path d="M1169.51 32.3478C1169.51 49.8261 1155.63 64 1138.63 64C1121.54 64 1107.66 49.8261 1107.66 32.3478C1107.66 14.8696 1121.54 0.782609 1138.63 0.782609C1155.63 0.782609 1169.51 14.8696 1169.51 32.3478Z" fill="white"/>
<path d="M1199.39 35.8261L1221.34 63.2174H1176.49V1.30435H1199.39C1208.94 1.30435 1216.66 9.04348 1216.66 18.6087C1216.66 28.1739 1208.94 35.8261 1199.39 35.8261Z" fill="white"/>
<path d="M1261.48 35.5652H1246.82L1262.78 55.3913V63.2174H1228.26V1.30435H1261.48V9.13044L1246.47 27.7391H1261.48V35.5652Z" fill="white"/>
<path d="M1283 56.9565C1283 60.6957 1280.05 63.6522 1276.41 63.6522C1272.76 63.6522 1269.73 60.6957 1269.73 56.9565C1269.73 53.3043 1272.76 50.3478 1276.41 50.3478C1280.05 50.3478 1283 53.3043 1283 56.9565Z" fill="white"/>
</svg>
