<svg width="292" height="96" viewBox="0 0 292 96" fill="none" xmlns="http://www.w3.org/2000/svg">
<path d="M12.6762 1.94595V94.3135H0V1.94595H12.6762Z" fill="white"/>
<path d="M163.27 1.94595L127.699 95.8703L108.943 46.8324L90.4465 96L54.0993 1.94595H163.27Z" fill="white"/>
<path d="M147.069 94.3135L186.391 0L225.584 94.3135H147.069Z" fill="white"/>
<path d="M266.001 42.8108C277.772 47.3514 289.542 55.9135 289.542 70.3135C289.542 86.5297 274.926 95.3514 259.533 95.3514C252.29 95.3514 237.156 93.1459 232.111 87.3081L257.593 53.1892C246.598 48 234.31 39.827 234.31 25.6865C234.31 9.34054 248.151 0.908112 263.672 0.908112C273.503 0.908112 283.463 3.8919 292 8.82162C265.871 42.8108 266.001 42.8108 266.001 42.8108Z" fill="white"/>
</svg>
