<svg width="114" height="32" viewBox="0 0 114 32" fill="none" xmlns="http://www.w3.org/2000/svg">
<path d="M15.04 29.2211L16.009 32H10.9957L11.3327 30.6526L10.2795 24.5474L9.73179 24H6.23509L5.68741 24.5474L4.67632 30.6526L4.97122 32H0L0.926837 29.2632L5.64528 1.81053L5.22399 0H10.7008L10.2795 1.81053L15.04 29.2211ZM6.48786 19.6211L6.86702 19.9579H9.0156L9.43689 19.6211L7.96238 11.0737L6.48786 19.6211Z" fill="white"/>
<path d="M30.1897 27.5368L29.4735 32H17.4667L17.9723 30.0632V1.97895L17.4667 0H22.438L21.9745 1.97895V27.5368L22.438 28H28.1254L30.1897 27.5368Z" fill="white"/>
<path d="M44.5892 27.5368L43.873 32H31.8663L32.3718 30.0632V1.97895L31.8663 0H36.8375L36.3741 1.97895V27.5368L36.8375 28H42.5249L44.5892 27.5368Z" fill="white"/>
<path d="M57.7977 32L55.7755 30.0211V1.97895L57.7977 0H65.8022L67.7822 1.97895V6.02105L68.2878 7.95789H63.2744L63.8221 6.02105V4.42105L63.3587 3.9579H60.2411L59.7777 4.42105V27.4947L60.2411 27.9579H63.3587L63.8221 27.4947V25.9368L63.2744 24H68.2878L67.7822 25.9368V30.0211L65.8022 32H57.7977Z" fill="white"/>
<path d="M83.9933 29.2211L84.9623 32H79.9489L80.286 30.6526L79.2327 24.5474L78.6851 24H75.1884L74.6407 24.5474L73.6296 30.6526L73.9245 32H68.9533L69.8801 29.2632L74.5986 1.81053L74.1773 0H79.654L79.2327 1.81053L83.9933 29.2211ZM75.4411 19.6211L75.8203 19.9579H77.9689L78.3902 19.6211L76.9156 11.0737L75.4411 19.6211Z" fill="white"/>
<path d="M90.8857 30.0632L91.3912 32H86.42L86.9256 30.0632V1.97895L86.42 0H96.9101L98.9323 1.97895V16L96.9101 18.0211H91.3491L90.8857 18.4842V30.0632ZM90.8857 13.5579L91.3491 14.0211H94.4245L94.8879 13.5579V4.50526L94.4245 4.04211H91.3491L90.8857 4.50526V13.5579Z" fill="white"/>
<path d="M113.452 6.06316L114 8H108.987L109.45 6.06316V4.50526L108.987 4.04211H105.911L105.448 4.50526V13.5579L105.911 14.0211H111.472L113.452 16V30.0211L111.472 32H103.468L101.403 30.0211V25.9789L100.94 24.0421H105.953L105.448 25.9789V27.5368L105.911 28H108.987L109.45 27.5368V18.4842L108.987 18.0211H103.468L101.403 16V1.97895L103.468 0H111.472L113.452 1.97895V6.06316Z" fill="white"/>
</svg>
