<?xml version="1.0" encoding="UTF-8"?><svg id="Layer_2" xmlns="http://www.w3.org/2000/svg" xmlns:xlink="http://www.w3.org/1999/xlink" viewBox="0 0 180.48 39.31"><defs><style>.cls-1{fill:url(#linear-gradient);}.cls-2{fill:#fff;}</style><linearGradient id="linear-gradient" x1="94.71" y1="44.98" x2="85.78" y2="-5.67" gradientUnits="userSpaceOnUse"><stop offset="0" stop-color="#fff" stop-opacity=".5"/><stop offset=".28" stop-color="#7a7a7a" stop-opacity="0"/><stop offset=".69" stop-color="#7a7a7a" stop-opacity="0"/><stop offset="1" stop-color="#000" stop-opacity=".5"/></linearGradient></defs><g id="Layer_1-2"><path class="cls-2" d="m171.86,1c2.04,0,3.95.79,5.39,2.23,1.44,1.44,2.23,3.35,2.23,5.39v.77c0,4.81,0,9.35-1.21,13.44-1.39,4.68-4.14,7.19-8.67,7.92-41.79,6.7-107.98,7.56-160.98,7.56-2.04,0-3.95-.79-5.39-2.23-1.44-1.44-2.23-3.35-2.23-5.39v-.77c0-4.81,0-9.35,1.21-13.44,1.39-4.68,4.14-7.19,8.67-7.92C52.67,1.86,118.86,1,171.86,1M171.86,0C106.44,0,48.64,1.49,10.72,7.57c-5.5.88-8.15,4.16-9.47,8.62C-.07,20.65,0,25.6,0,30.69H0C0,35.45,3.86,39.31,8.62,39.31c65.42,0,123.22-1.49,161.14-7.57,5.5-.88,8.15-4.16,9.47-8.62,1.32-4.46,1.25-9.41,1.25-14.5h0C180.48,3.86,176.62,0,171.86,0h0Z"/><path class="cls-1" d="m180.48,8.62c0,5.09.07,10.04-1.25,14.5s-3.98,7.74-9.47,8.62c-37.92,6.08-95.72,7.57-161.14,7.57-4.76,0-8.62-3.86-8.62-8.62h0C0,25.6-.07,20.65,1.25,16.19s3.98-7.74,9.47-8.62C48.64,1.49,106.44,0,171.86,0c4.76,0,8.62,3.86,8.62,8.62h0Z"/></g></svg>