<svg width="176" height="32" viewBox="0 0 176 32" fill="none" xmlns="http://www.w3.org/2000/svg">
<path d="M1.69647 32C0.678586 32 0 31.3228 0 30.3069V1.69312C0 0.67725 0.678586 0 1.69647 0H9.38712C10.405 0 11.0836 0.67725 11.0836 1.69312V3.21693C11.0836 4.23281 10.405 4.91005 9.38712 4.91005H7.12516C5.03285 4.91005 4.80666 5.30512 4.80666 8.97355C4.80666 12.642 4.91975 13.037 6.05073 13.037H7.23826C8.25614 13.037 8.93472 13.7143 8.93472 14.7302V16.1975C8.93472 17.2134 8.25614 17.8907 7.23826 17.8907H6.05073C4.91975 17.8907 4.80666 18.3422 4.80666 22.5185C4.80666 26.6384 5.03285 27.0899 7.12516 27.0899H9.38712C10.405 27.0899 11.0836 27.7672 11.0836 28.7831V30.3069C11.0836 31.3228 10.405 32 9.38712 32H1.69647Z" fill="white"/>
<path d="M27.5707 5.81305C29.4933 1.46737 29.6064 0.733687 30.3416 0.282187C30.6243 0.112877 30.9636 0 31.2464 0H32.8863C33.6214 0 34.1869 0.22575 34.4696 0.67725C35.3179 1.97531 34.0738 3.04762 31.3029 9.1993C28.532 15.2945 28.532 16.649 31.3029 22.7443C34.0738 28.8959 35.3179 29.9683 34.4696 31.2663C34.1869 31.7178 33.6214 31.9436 32.8863 31.9436H31.2464C30.6243 31.9436 30.0023 31.5485 29.7195 30.9277L27.5707 26.1305C26.6093 23.9295 25.9873 22.8007 25.3653 22.8007C24.7432 22.8007 24.1777 23.9295 23.1599 26.1305L21.011 30.9277C20.7283 31.5485 20.1062 31.9436 19.4842 31.9436H17.8443C16.3174 31.9436 15.6954 30.9841 16.3174 29.5732L19.4276 22.7443C22.1985 16.649 22.1985 15.2945 19.4276 9.1993C16.6567 3.04762 15.4127 1.97531 16.2609 0.67725C16.5436 0.22575 17.1091 0 17.8443 0H19.4842C19.7669 0 20.1062 0.112877 20.389 0.282187C21.1241 0.733687 21.2372 1.46737 23.1599 5.81305C24.1777 8.01411 24.7432 9.08642 25.3653 9.08642C25.9873 9.08642 26.6093 8.01411 27.5707 5.81305Z" fill="white"/>
<path d="M49.6057 12.642V8.12699C49.6057 6.37743 48.1355 4.91005 46.3825 4.91005H45.3646C44.5163 4.91005 44.4032 5.47443 44.4032 10.3845C44.4032 15.2945 44.5163 15.8589 45.4211 15.8589H46.3825C48.1355 15.8589 49.6057 14.3915 49.6057 12.642ZM41.2365 0.0564367H46.3825C50.8498 0.0564367 54.4689 3.66843 54.4689 8.12699V12.642C54.4689 17.1005 50.8498 20.7125 46.3825 20.7125H45.3646C44.5163 20.7125 44.4032 21.164 44.4032 25.5097V30.3069C44.4032 31.3228 43.7247 32 42.7068 32H41.2365C40.2186 32 39.54 31.3228 39.54 30.3069V1.74956C39.54 0.733687 40.2186 0.0564367 41.2365 0.0564367Z" fill="white"/>
<path d="M60.2334 32C59.2155 32 58.5369 31.3228 58.5369 30.3069V1.69312C58.5369 0.67725 59.2155 0 60.2334 0H67.924C68.9419 0 69.6205 0.67725 69.6205 1.69312V3.21693C69.6205 4.23281 68.9419 4.91005 67.924 4.91005H65.6621C63.5698 4.91005 63.3436 5.30512 63.3436 8.97355C63.3436 12.642 63.4567 13.037 64.5877 13.037H65.7752C66.7931 13.037 67.4717 13.7143 67.4717 14.7302V16.1975C67.4717 17.2134 66.7931 17.8907 65.7752 17.8907H64.5877C63.4567 17.8907 63.3436 18.3422 63.3436 22.5185C63.3436 26.6384 63.5698 27.0899 65.6621 27.0899H67.924C68.9419 27.0899 69.6205 27.7672 69.6205 28.7831V30.3069C69.6205 31.3228 68.9419 32 67.924 32H60.2334Z" fill="white"/>
<path d="M80.3962 4.85362H79.3783C78.5301 4.85362 78.417 5.41799 78.417 10.328C78.417 15.2381 78.5301 15.8025 79.4348 15.8025H80.3962C82.1492 15.8025 83.6195 14.3351 83.6195 12.5855V8.07055C83.6195 6.32099 82.1492 4.85362 80.3962 4.85362ZM88.5958 12.642C88.5958 15.351 87.4648 17.552 85.3725 19.1323C84.807 19.4709 84.9766 20.0353 86.7862 24.6067C88.5958 29.1781 89.6136 30.0811 88.7654 31.3792C88.4827 31.7743 87.9737 32 87.2386 32H85.6552C85.3159 32 84.9766 31.8871 84.7504 31.7178C83.9587 31.2099 83.9022 30.4198 82.0361 25.8483C80.2265 21.2205 79.9438 20.7125 79.2652 20.7125C78.5866 20.7125 78.5301 21.164 78.5301 25.5097V30.3069C78.5301 31.3228 77.8515 32 76.8336 32H75.3633C74.3454 32 73.6669 31.3228 73.6669 30.3069V1.74956C73.6669 0.733687 74.3454 0.0564367 75.3633 0.0564367H80.5093C84.9766 0.0564367 88.5958 3.66843 88.5958 8.12699V12.642Z" fill="white"/>
<path d="M98.7984 30.3069C98.7984 31.3228 98.1198 32 97.1019 32H95.6317C94.6138 32 93.9352 31.3228 93.9352 30.3069V1.69312C93.9352 0.67725 94.6138 0 95.6317 0H97.1019C98.1198 0 98.7984 0.67725 98.7984 1.69312V30.3069Z" fill="white"/>
<path d="M109.95 5.81305C111.194 8.01411 111.986 9.08642 112.777 9.08642C113.569 9.08642 114.361 8.01411 115.661 5.75661L118.489 0.84656C118.828 0.338623 119.394 0 119.959 0H121.09C122.108 0 122.787 0.67725 122.787 1.69312V30.3069C122.787 31.3228 122.108 32 121.09 32H119.62C118.602 32 117.923 31.3228 117.923 30.3069V20.9383C117.923 15.4074 117.867 13.2628 117.301 13.2628C117.075 13.2628 116.679 13.8272 116.114 14.7866L114.304 17.9471C113.852 18.6808 113.343 19.0758 112.834 19.0758C111.138 19.0758 111.194 17.6085 109.554 14.7866C108.989 13.8272 108.593 13.2628 108.367 13.2628C107.801 13.2628 107.745 15.4074 107.745 20.9383V30.3069C107.745 31.3228 107.066 32 106.048 32H104.578C103.56 32 102.881 31.3228 102.881 30.3069V1.69312C102.881 0.67725 103.56 0 104.578 0H105.709C106.274 0 106.84 0.338623 107.179 0.84656L109.95 5.81305Z" fill="white"/>
<path d="M128.49 32C127.472 32 126.793 31.3228 126.793 30.3069V1.69312C126.793 0.67725 127.472 0 128.49 0H136.18C137.198 0 137.877 0.67725 137.877 1.69312V3.21693C137.877 4.23281 137.198 4.91005 136.18 4.91005H133.918C131.826 4.91005 131.6 5.30512 131.6 8.97355C131.6 12.642 131.713 13.037 132.844 13.037H134.031C135.049 13.037 135.728 13.7143 135.728 14.7302V16.1975C135.728 17.2134 135.049 17.8907 134.031 17.8907H132.844C131.713 17.8907 131.6 18.3422 131.6 22.5185C131.6 26.6384 131.826 27.0899 133.918 27.0899H136.18C137.198 27.0899 137.877 27.7672 137.877 28.7831V30.3069C137.877 31.3228 137.198 32 136.18 32H128.49Z" fill="white"/>
<path d="M149.614 8.97355C151.027 12.5855 151.819 14.3915 152.272 14.3915C152.724 14.3915 152.781 12.6984 152.781 9.31217V1.69312C152.781 0.67725 153.459 0 154.477 0H155.947C156.965 0 157.644 0.67725 157.644 1.69312V30.3069C157.644 31.3228 156.965 32 155.947 32H154.703C154.364 32 154.025 31.8871 153.798 31.7178C153.007 31.2099 152.837 30.1376 149.953 23.0265C148.539 19.4145 147.748 17.6085 147.295 17.6085C146.843 17.6085 146.786 19.3016 146.786 22.6878V30.3069C146.786 31.3228 146.108 32 145.09 32H143.62C142.602 32 141.923 31.3228 141.923 30.3069V1.69312C141.923 0.67725 142.602 0 143.62 0H144.864C145.203 0 145.542 0.112877 145.768 0.282187C146.56 0.790123 146.73 1.86243 149.614 8.97355Z" fill="white"/>
<path d="M163.446 4.91005C162.428 4.91005 161.75 4.23281 161.75 3.21693L161.693 1.74956C161.693 0.733687 162.372 0.0564367 163.39 0.0564367H174.304C175.321 0.0564367 176 0.733687 176 1.74956V3.21693C176 4.23281 175.321 4.91005 174.304 4.91005H172.777C171.476 4.91005 171.306 6.15168 171.306 17.6085V30.3069C171.306 31.3228 170.628 32 169.61 32H168.14C167.122 32 166.443 31.3228 166.443 30.3069V17.6085C166.443 6.15168 166.274 4.91005 164.916 4.91005H163.446Z" fill="white"/>
</svg>
