<svg width="210" height="44" viewBox="0 0 210 44" fill="none" xmlns="http://www.w3.org/2000/svg">
<path d="M37.9619 1.79082C38.1496 1.93658 38.2122 2.08235 38.2122 2.24894C38.2122 2.56129 37.9827 2.85282 37.7741 3.18599C35.292 7.03833 31.7253 12.4108 28.68 17.3876C25.6138 22.3852 20.5244 30.9229 20.3576 31.0894C20.3159 31.1311 20.3367 31.2977 20.149 31.2977C20.0864 31.2977 19.9613 31.2352 19.857 31.2352C19.6901 31.2352 19.5232 31.381 19.2938 31.381C19.2104 31.381 19.0644 31.3185 18.9601 31.3185C18.8349 31.3185 18.7515 31.381 18.6055 31.381H18.4803C18.2926 31.381 17.8963 31.5476 17.3123 31.5476C16.6657 31.5476 16.2694 31.3602 16.2694 30.8396C16.2694 30.6522 16.3319 30.4023 16.4571 30.1107C17.0203 28.778 20.9416 22.3436 22.9648 19.0535C20.6496 19.1159 17.6669 19.1576 15.3516 19.1576C13.4327 19.1576 12.3689 19.1368 10.8671 19.1368C7.96782 23.8012 3.81704 31.2144 3.39988 31.3393C3.27473 31.3602 3.1913 31.381 3.08701 31.381C2.60727 31.381 2.66985 30.9853 2.44041 30.9853C2.2944 30.9853 2.31526 31.1519 1.77294 31.1519C1.56436 31.1519 1.35578 31.1311 1.29321 31.1311C1.23063 31.1311 1.16806 31.0062 1.10548 31.0062C1.04291 31.0062 1.10548 31.1311 0.896901 31.1311C0.375447 31.1311 0 30.8604 0 30.3814C0 30.2773 0 30.1732 0.0208582 30.0691C0.0625745 29.6526 0.688319 28.2991 0.917759 27.9243C2.48212 25.2797 5.00596 21.6772 6.6329 19.1784C5.56913 19.1368 4.75566 19.1576 4.46365 19.0951C3.5876 18.9494 2.941 18.5121 2.58641 17.0961C2.44041 16.5547 2.35697 16.2007 2.37783 15.9716C2.37783 15.4927 2.62813 15.4094 2.85757 15.4094C3.08701 15.4094 3.23302 15.5551 3.39988 15.5551C4.67223 15.5968 6.46603 15.7425 7.6758 15.7425C8.05125 15.7425 8.4267 15.7009 8.86472 15.7009C10.3665 13.3478 13.0155 9.41221 15.3516 6.10128C14.2044 7.03833 12.1186 8.35021 9.24017 8.35021C7.23778 8.35021 5.36055 7.32986 5.36055 5.53904C5.36055 4.0814 6.82062 3.14434 8.25983 3.14434C8.51013 3.14434 8.69785 3.26929 8.69785 3.39423C8.69785 3.58164 8.25983 3.58164 8.25983 3.78987C8.25983 4.24799 9.40703 4.64363 10.7002 4.64363C13.0989 4.64363 18.5638 0.978703 18.8141 0.812115C19.0226 0.707998 19.711 0.47894 20.3159 0.47894C21.2545 0.47894 21.5256 1.22858 21.7551 1.49929C21.9011 1.62423 21.9845 1.6867 21.9845 1.83247C21.9845 1.95741 21.9219 2.10317 21.7968 2.35305C21.5048 2.93611 16.1234 11.0781 13.2241 15.5551C15.0596 15.5551 21.3796 15.4718 25.2592 15.3469C27.8248 11.3071 33.1436 2.93611 33.6442 2.24894C34.1448 1.54094 34.5828 1.37435 35.2294 1.37435C35.73 1.37435 36.7938 1.49929 37.065 1.49929C37.4821 1.49929 37.4821 1.45764 37.9619 1.79082Z" fill="white"/>
<path d="M48.4535 25.0715C48.4952 25.3422 48.5787 25.9669 48.5787 26.5291C48.5787 26.8831 48.5578 27.2163 48.4535 27.4245C47.8903 28.5282 44.699 31.9432 41.9041 31.9432C39.7348 31.9432 38.7962 30.2149 38.7962 28.4657C38.7962 27.7785 38.9422 27.0913 39.2133 26.4875C36.919 29.4652 33.5399 31.8599 31.4541 31.8599C29.6603 31.8599 28.4088 30.4856 28.2002 29.0071C28.1377 28.6531 28.1168 28.3199 28.1168 27.9659C28.1168 21.7814 35.9595 15.222 40.59 15.222C42.1961 15.222 43.093 15.8467 43.3224 16.5338C44.0107 15.4718 44.3445 15.3885 45.1996 15.3885C46.0757 15.3885 46.7849 15.7217 46.7849 16.4714C46.7849 16.7837 46.6806 17.1585 46.4928 17.346C46.18 17.6791 42.6967 23.3639 42.0083 27.1122C41.9666 27.2579 41.9458 27.4662 41.9458 27.6952C41.9458 28.2158 42.0918 28.8405 42.6132 28.8405C44.2819 28.8405 47.2229 25.1548 47.5566 24.8632C47.7026 24.7383 47.8695 24.6758 48.0155 24.6758C48.2449 24.6758 48.4327 24.8424 48.4535 25.0715ZM42.4255 17.7C41.0072 17.7 38.2747 18.283 35.0417 21.6564C33.2062 23.5513 31.4124 26.7165 31.4124 27.9659C31.4124 28.2991 31.5375 28.4865 31.8296 28.4865C32.6222 28.4865 37.3778 24.3426 38.9631 22.3852C39.9017 21.1983 41.32 19.1784 42.4255 17.7Z" fill="white"/>
<path d="M65.3278 26.5291C65.3278 27.2371 65.0775 27.9243 64.3474 28.3616C62.8248 29.7567 60.4261 31.9432 57.944 31.9432C56.2753 31.9016 54.4398 30.6105 54.4398 28.5698C54.4398 25.9252 56.7134 22.4061 58.4654 19.8239C58.674 19.5116 59.5083 18.283 59.5709 17.8665L59.5292 17.8249C58.4446 17.9082 52.792 23.8429 51.7491 24.9882C50.1847 26.7165 48.7664 28.5282 47.3898 30.3606C47.0977 30.7354 46.5763 31.256 46.0757 31.256C45.7211 31.256 44.407 30.7354 44.1567 30.5272C44.0107 30.4439 44.0107 30.319 44.0107 30.194C44.0107 29.5069 44.8033 28.4032 45.2622 27.6328C47.056 24.5092 48.8915 21.4482 50.7271 18.3871C51.3319 17.3876 51.8325 16.3464 52.5626 15.4302C53.2718 14.5348 54.6275 14.2433 55.733 14.2433C56.1919 14.2433 56.2336 14.7014 56.2336 15.0554C56.2336 16.0341 54.1478 18.8869 53.5429 19.8656C55.5453 17.6583 58.7575 14.2849 61.9696 14.2849C63.0334 14.2849 63.9303 15.0137 63.9303 16.159C63.9303 17.4292 61.4064 20.8027 60.593 22.0521C59.9046 23.1141 57.5685 26.5708 57.5685 28.0076C57.5685 28.6739 58.2151 28.9238 58.82 28.9238C60.8016 28.9238 64.1806 24.655 64.7855 24.655C65.3695 24.655 65.3278 26.1543 65.3278 26.5291Z" fill="white"/>
<path d="M90.4201 0.895409C90.4201 1.10364 90.3159 1.22858 90.2324 1.39517C87.3749 6.01798 84.4547 10.62 81.7431 15.3053C80.5751 17.3043 75.7569 26.1335 75.7569 27.841V28.0076C75.7569 28.4449 75.9029 28.8613 76.3826 28.8613C78.1764 28.8613 81.0548 25.2797 81.5346 24.8632C81.6806 24.7383 81.8474 24.6758 81.9934 24.6758C82.494 24.6758 82.5566 25.4046 82.5566 26.5291C82.5566 26.8831 82.5358 27.2163 82.4315 27.4245C81.8683 28.5282 78.6561 31.9432 75.882 31.9432C73.5042 31.9432 72.7533 30.7979 72.7533 29.2986C72.7533 27.9451 73.3999 26.2792 74.0048 24.9882C72.0858 27.4662 68.2896 31.5476 64.9106 31.5476C62.9917 31.5476 62.3033 29.9442 62.3033 28.2783C62.3033 22.4269 70.5006 14.6597 76.2783 14.6597C76.8623 14.6597 77.4255 15.097 77.8427 15.4718C78.6561 14.2016 79.3236 12.9106 80.0745 11.6403C81.5971 9.07903 83.1406 6.55939 84.7676 4.0814C85.4142 3.1027 86.0608 2.0407 86.8325 1.14529C87.4166 0.374823 88.5638 0 89.565 0C90.1073 0 90.4201 0.374823 90.4201 0.895409ZM76.5703 17.4292C72.4195 18.3455 68.8319 21.5315 66.7878 25.1964C66.4124 25.8836 65.8075 27.1122 65.8075 27.8826C65.8075 28.0909 65.8492 28.3616 66.0995 28.3616C67.4762 28.3616 72.795 22.2603 73.7128 21.1566C74.7139 19.9489 75.6734 18.7203 76.5703 17.4292Z" fill="white"/>
<path d="M106.856 15.1387C106.856 19.5741 97.2408 31.5476 93.0274 31.5476C91.4422 31.5476 90.8373 30.319 90.8373 29.132C90.8373 28.8197 90.9625 26.5291 92.0262 24.3426C89.6067 27.5078 85.4976 31.9016 82.9321 31.9016C81.8683 31.9016 81.0965 31.256 81.0965 29.9442C81.0965 27.8826 83.7038 22.3019 85.289 19.9072C85.0179 20.0738 84.7884 20.1988 84.5381 20.1988C83.8707 20.1988 83.2241 19.4283 83.2241 19.1368C83.2241 18.991 83.2867 18.8452 83.4118 18.6787C83.7455 18.1997 87.5417 14.6181 88.8766 14.6181C89.5232 14.6181 90.9625 14.8888 90.9625 15.7842C90.9625 16.6796 85.1639 26.654 85.1639 27.5495C85.1639 27.5911 85.1847 27.6119 85.2056 27.6119C85.8313 27.6119 93.1108 19.2201 95.7598 15.8258C95.9267 15.5551 96.2187 15.3053 96.6985 15.3053C96.7819 15.3053 96.8236 15.3261 96.8862 15.3261C96.9905 15.3261 97.4702 15.097 98.0334 15.097C98.388 15.097 98.826 15.451 98.826 15.7217C98.826 15.805 98.8051 15.8883 98.7426 15.9924C97.6371 17.9915 94.0077 25.1131 94.0077 27.4245C94.0077 27.6119 94.0703 27.7993 94.2789 27.7993C94.6752 27.7993 95.6138 27.1746 97.7205 24.7799C100.974 21.0734 103.269 17.1377 103.269 15.7425C103.269 15.3053 103.018 15.3053 103.018 14.743C103.018 13.5561 103.957 12.9106 105.104 12.9106C106.21 12.9106 106.856 13.5561 106.856 15.1387Z" fill="white"/>
<path d="M122.417 16.159C122.417 17.346 119.934 20.9692 119.121 22.0521C118.829 22.4269 118.474 22.7184 117.932 22.7184C117.035 22.7184 116.555 21.9271 116.555 21.115C116.555 19.9072 117.369 18.7203 118.099 17.8665L118.057 17.8249C116.973 17.9082 111.32 23.8429 110.277 24.9882C108.713 26.6957 107.253 28.5073 105.876 30.3606C105.605 30.7354 105.083 31.256 104.604 31.256C104.249 31.256 102.893 30.7354 102.685 30.5272C102.539 30.4439 102.539 30.319 102.539 30.194C102.539 29.4652 103.331 28.424 103.79 27.6328C105.584 24.5092 107.42 21.4482 109.255 18.3871C109.86 17.3876 110.361 16.3464 111.091 15.4302C111.8 14.5348 113.156 14.2433 114.261 14.2433C114.678 14.2433 114.762 14.7014 114.762 15.0554C114.762 16.0341 112.676 18.8869 112.071 19.8656C114.032 17.6583 117.285 14.2849 120.456 14.2849C121.561 14.2849 122.417 15.0137 122.417 16.159Z" fill="white"/>
<path d="M133.763 8.35021C133.763 9.89115 131.97 11.9319 130.384 11.9319C129.571 11.9319 129.154 11.5154 129.154 10.7033C129.154 9.03739 130.822 7.16328 132.533 7.16328C133.284 7.16328 133.763 7.57974 133.763 8.35021ZM130.384 26.5291C130.384 26.8206 130.384 27.1538 130.259 27.4245C128.799 30.4023 125.17 32.0682 122.896 32.0682C121.019 32.0682 119.1 30.319 119.1 28.4865C119.1 26.4042 123.689 19.7407 123.689 19.4075C123.689 18.9285 122.834 18.5121 122.834 18.0331C122.834 17.7 126.067 14.16 127.861 14.16C128.549 14.16 129.404 15.1803 129.404 15.8258C129.404 16.2631 125.045 23.7804 124.44 24.8216C123.939 25.6545 122.875 27.1538 122.875 28.1533C122.875 28.7364 123.418 28.8613 123.939 28.8613C126.463 28.8613 129.195 24.655 129.842 24.655C130.426 24.655 130.384 26.1543 130.384 26.5291Z" fill="white"/>
<path d="M128.611 27.8826C128.653 24.6133 134.452 15.1803 136.329 12.2858C136.308 12.265 133.179 12.6607 132.721 12.6607H132.533C131.949 12.6607 130.802 12.4524 130.802 11.6403C130.802 11.328 131.323 11.0364 131.469 10.62C131.678 9.97444 133.388 9.05821 134.076 8.99574C134.973 8.93327 135.87 8.91245 136.767 8.8708C138.728 8.78751 136.684 8.8708 138.644 8.78751C139.541 7.49645 140.438 6.10128 141.502 4.93516C141.752 4.60199 141.794 4.51869 142.232 4.51869C142.566 4.51869 142.878 4.39375 143.212 4.39375C143.734 4.39375 143.734 4.60199 144.067 4.60199C144.318 4.60199 144.547 4.93516 144.547 5.16422C144.547 5.4974 142.753 8.18363 142.44 8.70421C142.712 8.68339 144.005 8.57927 144.505 8.57927C145.006 8.57927 145.486 8.60009 145.653 8.66257C146.153 8.8708 146.299 9.43303 146.758 9.76621C146.967 9.9328 147.113 10.0577 147.113 10.3701C147.113 11.203 146.07 11.5362 145.444 11.5987C143.525 11.7861 142.023 11.9943 140.104 12.0984C138.603 14.4098 132.449 24.9049 132.157 26.9872C132.116 27.2996 132.074 27.5703 132.074 27.7993C132.074 28.6115 132.428 28.8197 133.096 28.8197C135.098 28.8197 138.728 24.655 139.249 24.655C139.833 24.655 139.791 26.1543 139.791 26.5291C139.791 27.3204 139.499 27.7993 138.853 28.3616C137.455 29.5693 134.827 32.0057 132.428 32.0057C132.22 32.0057 132.032 31.9849 131.844 31.9432C129.717 31.5476 128.611 30.5689 128.611 27.8826Z" fill="white"/>
<path d="M152.035 8.35021C152.035 9.89115 150.241 11.9319 148.656 11.9319C147.843 11.9319 147.426 11.5154 147.426 10.7033C147.426 9.03739 149.094 7.16328 150.805 7.16328C151.555 7.16328 152.035 7.57974 152.035 8.35021ZM148.656 26.5291C148.656 26.8206 148.656 27.1538 148.531 27.4245C147.071 30.4023 143.442 32.0682 141.168 32.0682C139.291 32.0682 137.372 30.319 137.372 28.4865C137.372 26.4042 141.961 19.7407 141.961 19.4075C141.961 18.9285 141.105 18.5121 141.105 18.0331C141.105 17.7 144.339 14.16 146.132 14.16C146.821 14.16 147.676 15.1803 147.676 15.8258C147.676 16.2631 143.316 23.7804 142.712 24.8216C142.211 25.6545 141.147 27.1538 141.147 28.1533C141.147 28.7364 141.69 28.8613 142.211 28.8613C144.735 28.8613 147.467 24.655 148.114 24.655C148.698 24.655 148.656 26.1543 148.656 26.5291Z" fill="white"/>
<path d="M165.781 26.5291C165.781 27.2371 165.53 27.9243 164.8 28.3616C163.278 29.7567 160.879 31.9432 158.397 31.9432C156.728 31.9016 154.893 30.6105 154.893 28.5698C154.893 25.9252 157.166 22.4061 158.918 19.8239C159.127 19.5116 159.961 18.283 160.024 17.8665L159.982 17.8249C158.898 17.9082 153.245 23.8429 152.202 24.9882C150.638 26.7165 149.219 28.5282 147.843 30.3606C147.551 30.7354 147.029 31.256 146.529 31.256C146.174 31.256 144.86 30.7354 144.61 30.5272C144.464 30.4439 144.464 30.319 144.464 30.194C144.464 29.5069 145.256 28.4032 145.715 27.6328C147.509 24.5092 149.344 21.4482 151.18 18.3871C151.785 17.3876 152.285 16.3464 153.015 15.4302C153.725 14.5348 155.08 14.2433 156.186 14.2433C156.645 14.2433 156.687 14.7014 156.687 15.0554C156.687 16.0341 154.601 18.8869 153.996 19.8656C155.998 17.6583 159.21 14.2849 162.423 14.2849C163.486 14.2849 164.383 15.0137 164.383 16.159C164.383 17.4292 161.859 20.8027 161.046 22.0521C160.358 23.1141 158.021 26.5708 158.021 28.0076C158.021 28.6739 158.668 28.9238 159.273 28.9238C161.254 28.9238 164.633 24.655 165.238 24.655C165.822 24.655 165.781 26.1543 165.781 26.5291Z" fill="white"/>
<path d="M183.343 15.3469C183.364 15.3885 183.364 15.4094 183.364 15.451C183.364 15.7217 182.926 16.0133 182.864 16.1174C180.444 19.5741 177.19 24.5717 173.436 31.1727C174.875 29.9025 178.337 26.8206 182.321 24.8632C182.488 24.7799 182.676 24.7383 182.801 24.7383C183.302 24.7383 183.343 25.4671 183.343 26.5291C183.343 26.8831 183.322 27.2163 183.218 27.4245C182.989 27.9659 175.188 31.8391 170.87 37.0241C168.534 39.8353 167.178 41.7511 166.386 43.1046C166.031 43.7293 165.322 44 164.571 44C163.111 44 162.339 43.1879 162.339 41.7719C162.339 37.7321 168.555 33.7132 169.16 32.9636C169.535 32.4013 169.535 32.5263 173.352 26.4042C170.182 29.7151 167.116 31.5476 165.822 31.5476C164.175 31.5476 162.631 31.027 162.631 28.8197C162.631 21.2816 172.956 14.4931 177.607 14.4931C178.608 14.4931 179.234 14.8888 179.443 15.3053C180.402 14.2433 181.508 14.2849 182.613 14.2849C183.176 14.2849 183.176 14.9304 183.343 15.3469ZM178.254 16.8462C169.681 18.7203 165.948 26.3625 165.948 28.0909C165.948 28.3199 166.01 28.4449 166.135 28.4449C166.636 28.4449 171.412 25.363 178.254 16.8462Z" fill="white"/>
<path d="M210 7.07998C210 15.2428 198.841 16.8045 194.19 21.5315C192.938 22.8017 194.774 24.1761 192.354 24.1761C191.979 24.1761 190.039 24.0511 190.039 22.5726C190.039 21.0734 190.81 19.8864 191.749 19.0327C195.691 15.3677 206.329 11.5987 206.329 6.93422C206.329 5.22669 205.098 4.20634 201.678 4.20634C197.819 4.20634 192.291 6.99669 192.291 9.53715C192.291 9.66209 192.729 9.8495 192.813 9.8495C193.376 9.8495 193.751 9.37056 193.96 9.37056C194.148 9.37056 194.273 9.59962 194.273 9.76621C194.273 11.0573 193.001 11.7236 191.082 11.7236C189.976 11.7236 188.203 10.495 188.203 9.16233C188.203 4.39375 195.879 0.770469 201.386 0.770469C205.974 0.770469 210 2.93611 210 7.07998ZM187.285 32.3805C186.472 32.3805 186.055 31.9432 186.055 31.1311C186.055 29.4652 187.765 27.5911 189.476 27.5911C190.206 27.5911 190.664 28.0284 190.664 28.7989C190.664 30.319 188.912 32.3805 187.285 32.3805Z" fill="white"/>
</svg>
