<svg width="57" height="32" viewBox="0 0 57 32" fill="none" xmlns="http://www.w3.org/2000/svg">
<path d="M2.91693 31.6538H0L4.41377 0H7.3307L2.91693 31.6538Z" fill="white"/>
<path d="M11.6023 29.6923L11.2953 31.8077C11.0266 31.9231 10.4509 32 10.0287 32C7.61075 32 6.45934 30.6154 6.45934 28.2692C6.45934 27.8846 6.45934 27.5 6.5361 27.0769L8.9157 10.1923H7.80266L8.1097 7.84615H9.22274L10.2974 0.307691H12.9457L11.871 7.84615H14.5576L14.2506 10.1923H11.564L9.18436 27.0769C9.14598 27.3846 9.1076 27.6538 9.1076 27.9231C9.1076 29.2308 9.72169 29.7308 11.1034 29.7308C11.2569 29.7308 11.4488 29.7308 11.6023 29.6923Z" fill="white"/>
<path d="M21.4817 31.6538H19.0638C19.0254 31.5 19.0254 31.3462 19.0254 31.1538C19.0254 30.8846 19.0638 30.5769 19.1021 30.2308C18.3345 31.3462 17.2983 32 15.9933 32C14.1127 32 13.038 31.1538 13.038 29.1923C13.038 28.8846 13.0764 28.5769 13.1148 28.2308L13.6137 24.7308C14.2662 20.0769 17.1064 18.8077 20.7525 17.3846L21.4817 12.1923C21.5201 11.9615 21.5201 11.7692 21.5201 11.5769C21.5201 10.6154 21.0979 10.1154 20.0233 10.1154C18.6416 10.1154 18.2194 10.8462 18.0275 12.1923L17.2983 17.1923H14.957L15.6863 12.1538C16.1468 9.03846 17.6053 7.46154 20.4839 7.46154C22.8634 7.46154 24.0916 8.65384 24.0916 11C24.0916 11.3846 24.0532 11.7692 24.0149 12.1538L21.6353 28.9231C21.5201 29.7308 21.4434 30.5 21.4434 31.1154C21.4434 31.3077 21.4434 31.5 21.4817 31.6538ZM19.2557 27.9231L20.4455 19.5C17.1831 20.5769 16.5306 22.0385 16.1468 24.9231L15.8014 27.4615C15.763 27.6538 15.763 27.8077 15.763 27.9615C15.763 28.9615 16.3004 29.4231 17.3366 29.4231C18.1043 29.4231 18.8335 29 19.2557 27.9231Z" fill="white"/>
<path d="M26.7468 31.6538H24.0985L28.5123 0H31.1606L26.7468 31.6538Z" fill="white"/>
<path d="M36.0571 4.80769H33.4088L34.0613 0H36.7096L36.0571 4.80769ZM32.2958 31.6538H29.6475L32.9483 7.84615H35.5965L32.2958 31.6538Z" fill="white"/>
<path d="M41.7167 27.1923L42.446 21.9231H44.9023L44.1731 27.2308C43.7893 30.0769 42.1389 32 39.2604 32C36.7272 32 35.5374 30.5385 35.5374 28.2692C35.5374 27.9231 35.5374 27.5385 35.6142 27.1538L37.6868 12.3846C38.1089 9.46154 39.7977 7.46154 42.7146 7.46154C45.2094 7.46154 46.2456 8.92308 46.2456 11.1154C46.2456 11.5 46.2456 11.9231 46.1689 12.3462L45.4396 17.5H43.06L43.7893 12.3077C43.8277 12.1154 43.8277 11.9615 43.8277 11.7692C43.8277 10.7692 43.3287 10.1923 42.3308 10.1923C41.1794 10.1923 40.4502 11.0385 40.2583 12.3462L38.1857 27.1538C38.1473 27.3462 38.1473 27.5385 38.1473 27.6923C38.1473 28.7308 38.6463 29.3077 39.6442 29.3077C40.8724 29.3077 41.5248 28.5385 41.7167 27.1923Z" fill="white"/>
<path d="M52.2024 27.5C52.6246 24.5385 52.6246 24.3462 52.6246 24.1538C52.6246 23.4615 52.4327 22.8462 51.8186 21.9615C50.8975 20.6923 49.5925 19.5769 48.7866 18.4231C48.2108 17.6154 47.9806 16.9231 47.9806 15.9615C47.9806 15.5385 48.0189 15.0769 48.4411 12.0385C48.9017 8.76923 50.5521 7.46154 53.3155 7.46154C56.0021 7.46154 57 8.42308 57 10.5769C57 11 56.9616 11.5 56.3475 15.9231H53.9296C54.5053 11.8462 54.5053 11.6923 54.5053 11.5385C54.5053 10.4615 53.8528 10.1154 53.0084 10.1154C51.857 10.1154 51.2045 10.7308 51.0126 12.0385C50.5904 15.1154 50.5904 15.3077 50.5904 15.5C50.5904 16.1923 50.7823 16.6154 51.3581 17.3462C52.2408 18.4615 53.5074 19.4615 54.3134 20.5769C55.0042 21.5385 55.3113 22.3846 55.3113 23.5C55.3113 23.9615 55.2729 24.5 54.8123 27.6923C54.3901 30.6923 52.7398 32 49.7844 32C47.3665 32 46.1767 30.9231 46.1767 28.6923C46.1767 28.3462 46.215 27.9615 46.8291 23.6923H49.2087C48.633 27.6923 48.633 27.8846 48.633 28.0385C48.633 29.1538 49.2855 29.4231 50.2066 29.4231C51.3964 29.4231 52.0105 28.7692 52.2024 27.5Z" fill="white"/>
</svg>
