<svg width="24" height="28" viewBox="0 0 24 28" fill="none" xmlns="http://www.w3.org/2000/svg">
<path d="M1.35999 0.579956H0.859985V1.07996V7.41596V7.91596H1.35999H7.48399V27V27.5H7.98399H15.544H16.044V27V7.91596H22.168H22.668V7.41596V1.07996V0.579956H22.168H1.35999Z" stroke="white"/>
<path fill-rule="evenodd" clip-rule="evenodd" d="M7.98402 23.9476C9.51698 24.3918 11.2446 24.612 13.096 24.612C13.9361 24.612 14.7555 24.555 15.544 24.4421V18.2714C14.8959 18.6541 14.0224 18.816 13.24 18.816C10.756 18.816 9.17202 17.844 8.92002 15.792H7.98402V23.9476ZM7.98402 12.9021C9.17939 13.3329 10.4336 13.6594 11.62 13.956C11.6911 13.9738 11.7616 13.9914 11.8312 14.0088C13.5044 14.4266 14.757 14.7395 15.544 15.1899L15.544 7.8C14.9302 7.65084 14.3584 7.51996 13.8308 7.39921C11.0479 6.76224 9.49602 6.40705 9.49602 5.136C9.49602 4.092 10.648 3.336 12.304 3.336C14.356 3.336 15.364 4.236 15.58 5.64H22.168V2.12963C21.9651 1.75308 21.7297 1.4035 21.4655 1.07996H3.63584C2.6509 2.3005 2.08002 3.89698 2.08002 5.928C2.08002 6.46076 2.1295 6.95563 2.22281 7.41596H7.98402V12.9021Z" fill="white"/>
</svg>
