<svg width="228" height="32" viewBox="0 0 228 32" fill="none" xmlns="http://www.w3.org/2000/svg">
<path d="M26.5837 8.93507V23.1065C26.5837 24.4087 26.404 25.6139 26.0446 26.7221C25.6851 27.8026 25.0078 28.7307 24.0124 29.5065C23.0447 30.2823 21.69 30.8918 19.9481 31.3351C18.234 31.7784 16.0221 32 13.3126 32C10.6031 32 8.37739 31.7784 6.63556 31.3351C4.92137 30.8918 3.56661 30.2823 2.57128 29.5065C1.60359 28.7307 0.926213 27.8026 0.539139 26.7221C0.179713 25.6139 0 24.4087 0 23.1065V8.93507C0 7.6329 0.179713 6.44156 0.539139 5.36104C0.926213 4.25281 1.60359 3.31082 2.57128 2.53507C3.56661 1.7316 4.92137 1.10823 6.63556 0.664936C8.37739 0.221645 10.6031 0 13.3126 0C16.0221 0 18.234 0.221645 19.9481 0.664936C21.69 1.10823 23.0447 1.7316 24.0124 2.53507C25.0078 3.31082 25.6851 4.25281 26.0446 5.36104C26.404 6.44156 26.5837 7.6329 26.5837 8.93507ZM26.169 23.1065V8.93507C26.169 7.66061 25.9754 6.51082 25.5884 5.48571C25.2289 4.4329 24.5654 3.53247 23.5977 2.78442C22.6577 2.03636 21.3444 1.45455 19.6578 1.03896C17.9989 0.623378 15.8839 0.415586 13.3126 0.415586C10.7413 0.415586 8.6124 0.623378 6.92586 1.03896C5.23932 1.45455 3.91221 2.03636 2.94453 2.78442C2.00449 3.53247 1.34094 4.4329 0.953861 5.48571C0.594435 6.51082 0.414722 7.66061 0.414722 8.93507V23.1065C0.414722 24.381 0.594435 25.5446 0.953861 26.5974C1.34094 27.6225 2.00449 28.5091 2.94453 29.2571C3.91221 29.9775 5.23932 30.5455 6.92586 30.961C8.6124 31.3766 10.7413 31.5844 13.3126 31.5844C15.8839 31.5844 17.9989 31.3766 19.6578 30.961C21.3444 30.5455 22.6577 29.9775 23.5977 29.2571C24.5654 28.5091 25.2289 27.6225 25.5884 26.5974C25.9754 25.5446 26.169 24.381 26.169 23.1065ZM21.6485 22.1506C21.6485 23.813 21.0541 25.1706 19.8652 26.2234C18.6763 27.2485 16.4645 27.761 13.2296 27.761C9.99481 27.761 7.79678 27.2485 6.63556 26.2234C5.47433 25.1706 4.89372 23.813 4.89372 22.1506V9.89091C4.89372 8.22857 5.47433 6.88485 6.63556 5.85974C7.79678 4.80693 9.99481 4.28052 13.2296 4.28052C16.4645 4.28052 18.6763 4.80693 19.8652 5.85974C21.0541 6.88485 21.6485 8.22857 21.6485 9.89091V22.1506ZM5.30844 22.1506C5.30844 23.7022 5.86141 24.9628 6.96733 25.9325C8.07326 26.8745 10.1607 27.3455 13.2296 27.3455C16.2986 27.3455 18.3998 26.8745 19.5334 25.9325C20.667 24.9628 21.2338 23.7022 21.2338 22.1506V9.89091C21.2338 8.33939 20.667 7.09264 19.5334 6.15065C18.3998 5.18095 16.2986 4.6961 13.2296 4.6961C10.1607 4.6961 8.07326 5.18095 6.96733 6.15065C5.86141 7.09264 5.30844 8.33939 5.30844 9.89091V22.1506ZM9.82892 21.6104V10.4312C9.82892 9.90476 10.0363 9.46147 10.451 9.1013C10.8657 8.71342 11.8196 8.51948 13.3126 8.51948C14.8056 8.51948 15.7594 8.71342 16.1742 9.1013C16.5889 9.46147 16.7962 9.90476 16.7962 10.4312V21.6104C16.7962 22.1645 16.5889 22.6355 16.1742 23.0234C15.7594 23.3836 14.8056 23.5636 13.3126 23.5636C11.8196 23.5636 10.8657 23.3836 10.451 23.0234C10.0363 22.6355 9.82892 22.1645 9.82892 21.6104ZM10.2436 10.4312V21.6104C10.2436 22.1091 10.451 22.497 10.8657 22.774C11.3081 23.0234 12.1237 23.1481 13.3126 23.1481C14.5015 23.1481 15.3033 23.0234 15.718 22.774C16.1603 22.497 16.3815 22.1091 16.3815 21.6104V10.4312C16.3815 9.96017 16.1603 9.6 15.718 9.35065C15.3033 9.07359 14.5015 8.93507 13.3126 8.93507C12.1514 8.93507 11.3496 9.07359 10.9072 9.35065C10.4648 9.6 10.2436 9.96017 10.2436 10.4312Z" fill="white"/>
<path d="M57.2858 2.53507V23.1065C57.2858 24.4087 57.0922 25.6139 56.7052 26.7221C56.3457 27.8026 55.6822 28.7307 54.7145 29.5065C53.7468 30.2823 52.3921 30.8918 50.6502 31.3351C48.936 31.7784 46.738 32 44.0561 32C41.3743 32 39.1624 31.7784 37.4206 31.3351C35.7064 30.8918 34.3655 30.2823 33.3978 29.5065C32.4301 28.7307 31.7527 27.8026 31.3656 26.7221C31.0062 25.6139 30.8265 24.4087 30.8265 23.1065V2.53507C30.8265 1.87013 30.9786 1.38528 31.2827 1.08052C31.5868 0.775759 32.0707 0.623378 32.7342 0.623378H39.2454C39.9089 0.623378 40.3928 0.775759 40.6969 1.08052C41.001 1.38528 41.1531 1.87013 41.1531 2.53507V21.4857C41.1531 21.9844 41.3604 22.3723 41.7752 22.6494C42.2175 22.8987 43.0055 23.0234 44.1391 23.0234C45.3003 23.0234 46.0883 22.8987 46.503 22.6494C46.9454 22.3723 47.1666 21.9844 47.1666 21.4857V2.53507C47.1666 1.87013 47.3048 1.38528 47.5813 1.08052C47.8854 0.775759 48.3831 0.623378 49.0743 0.623378H55.3781C56.0416 0.623378 56.5255 0.775759 56.8296 1.08052C57.1337 1.38528 57.2858 1.87013 57.2858 2.53507ZM56.8711 23.1065V2.53507C56.8711 2.00866 56.7466 1.63463 56.4978 1.41299C56.2766 1.16364 55.9034 1.03896 55.3781 1.03896H49.0743C48.549 1.03896 48.1619 1.16364 47.9131 1.41299C47.6919 1.63463 47.5813 2.00866 47.5813 2.53507V21.4857C47.5813 22.0398 47.3739 22.5108 46.9592 22.8987C46.5445 23.2589 45.6044 23.439 44.1391 23.439C42.7014 23.439 41.7752 23.2589 41.3604 22.8987C40.9457 22.5108 40.7384 22.0398 40.7384 21.4857V2.53507C40.7384 2.00866 40.6139 1.63463 40.3651 1.41299C40.1439 1.16364 39.7707 1.03896 39.2454 1.03896H32.7342C32.2089 1.03896 31.8218 1.16364 31.573 1.41299C31.3518 1.63463 31.2412 2.00866 31.2412 2.53507V23.1065C31.2412 24.381 31.4209 25.5446 31.7804 26.5974C32.1674 27.6225 32.831 28.5091 33.771 29.2571C34.7387 29.9775 36.052 30.5455 37.7109 30.961C39.3698 31.3766 41.4849 31.5844 44.0561 31.5844C46.6274 31.5844 48.7425 31.3766 50.4014 30.961C52.0603 30.5455 53.3597 29.9775 54.2998 29.2571C55.2675 28.5091 55.931 27.6225 56.2904 26.5974C56.6775 25.5446 56.8711 24.381 56.8711 23.1065ZM35.8032 4.77922H36.2179V22.1091C36.2179 23.6606 36.757 24.9212 37.8353 25.8909C38.9412 26.8329 41.0287 27.3039 44.0976 27.3039C47.1666 27.3039 49.254 26.8329 50.3599 25.8909C51.4658 24.9212 52.0188 23.6606 52.0188 22.1091V4.77922H52.4335V22.1091C52.4335 23.7714 51.8529 25.129 50.6917 26.1818C49.5305 27.2069 47.3324 27.7195 44.0976 27.7195C40.8628 27.7195 38.6647 27.2069 37.5035 26.1818C36.37 25.129 35.8032 23.7714 35.8032 22.1091V4.77922Z" fill="white"/>
<path d="M69.7728 31.3766C69.1092 31.3766 68.6254 31.2242 68.3213 30.9195C68.0171 30.6147 67.8651 30.1299 67.8651 29.4649V9.47533H62.1834C61.5198 9.47533 61.036 9.32294 60.7319 9.01818C60.4277 8.71342 60.2757 8.22857 60.2757 7.56364V2.53507C60.2757 1.87013 60.4277 1.38528 60.7319 1.08052C61.036 0.775759 61.5198 0.623378 62.1834 0.623378H84.0807C84.7443 0.623378 85.2281 0.775759 85.5322 1.08052C85.8364 1.38528 85.9884 1.87013 85.9884 2.53507V7.56364C85.9884 8.22857 85.8364 8.71342 85.5322 9.01818C85.2281 9.32294 84.7443 9.47533 84.0807 9.47533H78.399V29.4649C78.399 30.1299 78.247 30.6147 77.9428 30.9195C77.6387 31.2242 77.1549 31.3766 76.4913 31.3766H69.7728ZM76.4913 30.961C77.0166 30.961 77.3899 30.8502 77.6111 30.6286C77.8599 30.3792 77.9843 29.9913 77.9843 29.4649V9.05974H84.0807C84.606 9.05974 84.9793 8.94892 85.2005 8.72727C85.4493 8.47792 85.5737 8.09004 85.5737 7.56364V2.53507C85.5737 2.00866 85.4493 1.63463 85.2005 1.41299C84.9793 1.16364 84.606 1.03896 84.0807 1.03896H62.1834C61.6581 1.03896 61.271 1.16364 61.0222 1.41299C60.801 1.63463 60.6904 2.00866 60.6904 2.53507V7.56364C60.6904 8.09004 60.801 8.47792 61.0222 8.72727C61.271 8.94892 61.6581 9.05974 62.1834 9.05974H68.2798V29.4649C68.2798 29.9913 68.3904 30.3792 68.6116 30.6286C68.8604 30.8502 69.2475 30.961 69.7728 30.961H76.4913ZM72.9247 27.2208V5.19481H64.4229V4.77922H81.8412V5.19481H73.3394V27.2208H72.9247Z" fill="white"/>
<path d="M91.0999 31.3766C90.4363 31.3766 89.9525 31.2242 89.6484 30.9195C89.3442 30.6147 89.1922 30.1299 89.1922 29.4649V2.53507C89.1922 1.87013 89.3442 1.38528 89.6484 1.08052C89.9525 0.775759 90.4363 0.623378 91.0999 0.623378H97.5281C98.1916 0.623378 98.6755 0.775759 98.9796 1.08052C99.2837 1.38528 99.4358 1.87013 99.4358 2.53507V22.6909H104.288V16.374C104.288 15.7091 104.44 15.2242 104.744 14.9195C105.048 14.6147 105.532 14.4623 106.196 14.4623H112.209C112.873 14.4623 113.357 14.6147 113.661 14.9195C113.965 15.2242 114.117 15.7091 114.117 16.374V29.4649C114.117 30.1299 113.965 30.6147 113.661 30.9195C113.357 31.2242 112.873 31.3766 112.209 31.3766H91.0999ZM112.209 30.961C112.735 30.961 113.108 30.8502 113.329 30.6286C113.578 30.3792 113.702 29.9913 113.702 29.4649V16.374C113.702 15.8476 113.578 15.4736 113.329 15.2519C113.108 15.0026 112.735 14.8779 112.209 14.8779H106.196C105.67 14.8779 105.283 15.0026 105.035 15.2519C104.813 15.4736 104.703 15.8476 104.703 16.374V23.1065H99.0211V2.53507C99.0211 2.00866 98.8967 1.63463 98.6478 1.41299C98.4266 1.16364 98.0534 1.03896 97.5281 1.03896H91.0999C90.5746 1.03896 90.1875 1.16364 89.9387 1.41299C89.7175 1.63463 89.6069 2.00866 89.6069 2.53507V29.4649C89.6069 29.9913 89.7175 30.3792 89.9387 30.6286C90.1875 30.8502 90.5746 30.961 91.0999 30.961H112.209ZM94.1274 27.2208V4.77922H94.5421V26.8052H108.974V18.6182H109.389V27.2208H94.1274Z" fill="white"/>
<path d="M119.272 31.3766C118.609 31.3766 118.125 31.2242 117.821 30.9195C117.517 30.6147 117.365 30.1299 117.365 29.4649V24.5195C117.365 23.8545 117.517 23.3697 117.821 23.0649C118.125 22.7602 118.609 22.6078 119.272 22.6078H122.964V9.47533H119.272C118.609 9.47533 118.125 9.32294 117.821 9.01818C117.517 8.71342 117.365 8.22857 117.365 7.56364V2.53507C117.365 1.87013 117.517 1.38528 117.821 1.08052C118.125 0.775759 118.609 0.623378 119.272 0.623378H136.94C137.603 0.623378 138.087 0.775759 138.391 1.08052C138.695 1.38528 138.847 1.87013 138.847 2.53507V7.56364C138.847 8.22857 138.695 8.71342 138.391 9.01818C138.087 9.32294 137.603 9.47533 136.94 9.47533H133.332V22.6078H136.94C137.603 22.6078 138.087 22.7602 138.391 23.0649C138.695 23.3697 138.847 23.8545 138.847 24.5195V29.4649C138.847 30.1299 138.695 30.6147 138.391 30.9195C138.087 31.2242 137.603 31.3766 136.94 31.3766H119.272ZM119.272 30.961H136.94C137.465 30.961 137.838 30.8502 138.059 30.6286C138.308 30.3792 138.433 29.9913 138.433 29.4649V24.5195C138.433 23.9931 138.308 23.619 138.059 23.3974C137.838 23.1481 137.465 23.0234 136.94 23.0234H132.917V9.05974H136.94C137.465 9.05974 137.838 8.94892 138.059 8.72727C138.308 8.47792 138.433 8.09004 138.433 7.56364V2.53507C138.433 2.00866 138.308 1.63463 138.059 1.41299C137.838 1.16364 137.465 1.03896 136.94 1.03896H119.272C118.747 1.03896 118.36 1.16364 118.111 1.41299C117.89 1.63463 117.779 2.00866 117.779 2.53507V7.56364C117.779 8.09004 117.89 8.47792 118.111 8.72727C118.36 8.94892 118.747 9.05974 119.272 9.05974H123.378V23.0234H119.272C118.747 23.0234 118.36 23.1481 118.111 23.3974C117.89 23.619 117.779 23.9931 117.779 24.5195V29.4649C117.779 29.9913 117.89 30.3792 118.111 30.6286C118.36 30.8502 118.747 30.961 119.272 30.961ZM134.7 27.2208H121.512V26.8052H127.94V5.19481H121.512V4.77922H134.7V5.19481H128.355V26.8052H134.7V27.2208Z" fill="white"/>
<path d="M149.028 5.11169L164.289 22.3169V4.77922H164.704V27.2208H164.289V22.9403L148.613 5.31948C148.585 5.29178 148.544 5.26407 148.488 5.23637C148.461 5.20866 148.433 5.19481 148.405 5.19481C148.378 5.19481 148.35 5.20866 148.322 5.23637C148.322 5.26407 148.322 5.29178 148.322 5.31948V27.2208H147.908V5.23637C147.908 5.07013 147.963 4.94546 148.074 4.86234C148.184 4.77922 148.295 4.73766 148.405 4.73766C148.516 4.73766 148.613 4.76537 148.696 4.82078C148.779 4.87619 148.889 4.97316 149.028 5.11169ZM151.267 30.961C151.792 30.961 152.166 30.8502 152.387 30.6286C152.636 30.3792 152.76 29.9913 152.76 29.4649V15.7506L159.852 24.3532V29.4649C159.852 29.9913 159.962 30.3792 160.184 30.6286C160.432 30.8502 160.819 30.961 161.345 30.961H167.566C168.091 30.961 168.464 30.8502 168.685 30.6286C168.934 30.3792 169.059 29.9913 169.059 29.4649V2.53507C169.059 2.00866 168.934 1.63463 168.685 1.41299C168.464 1.16364 168.091 1.03896 167.566 1.03896H161.345C160.819 1.03896 160.432 1.16364 160.184 1.41299C159.962 1.63463 159.852 2.00866 159.852 2.53507V11.387L151.806 2.16104C151.447 1.74546 151.073 1.45455 150.686 1.28831C150.327 1.12208 149.885 1.03896 149.359 1.03896H145.046C144.521 1.03896 144.134 1.16364 143.885 1.41299C143.664 1.63463 143.553 2.00866 143.553 2.53507V29.4649C143.553 29.9913 143.664 30.3792 143.885 30.6286C144.134 30.8502 144.521 30.961 145.046 30.961H151.267ZM151.267 31.3766H145.046C144.383 31.3766 143.899 31.2242 143.595 30.9195C143.291 30.6147 143.138 30.1299 143.138 29.4649V2.53507C143.138 1.87013 143.291 1.38528 143.595 1.08052C143.899 0.775759 144.383 0.623378 145.046 0.623378H149.359C149.968 0.623378 150.479 0.720348 150.894 0.914286C151.308 1.10823 151.723 1.42684 152.138 1.87013L159.437 10.2234V2.53507C159.437 1.87013 159.589 1.38528 159.893 1.08052C160.197 0.775759 160.681 0.623378 161.345 0.623378H167.566C168.229 0.623378 168.713 0.775759 169.017 1.08052C169.321 1.38528 169.473 1.87013 169.473 2.53507V29.4649C169.473 30.1299 169.321 30.6147 169.017 30.9195C168.713 31.2242 168.229 31.3766 167.566 31.3766H161.345C160.681 31.3766 160.197 31.2242 159.893 30.9195C159.589 30.6147 159.437 30.1299 159.437 29.4649V24.5195L153.175 16.9143V29.4649C153.175 30.1299 153.023 30.6147 152.719 30.9195C152.414 31.2242 151.931 31.3766 151.267 31.3766Z" fill="white"/>
<path d="M176.272 31.3766C175.608 31.3766 175.124 31.2242 174.82 30.9195C174.516 30.6147 174.364 30.1299 174.364 29.4649V2.53507C174.364 1.87013 174.516 1.38528 174.82 1.08052C175.124 0.775759 175.608 0.623378 176.272 0.623378H195.515C196.179 0.623378 196.662 0.775759 196.966 1.08052C197.271 1.38528 197.423 1.87013 197.423 2.53507V7.3974C197.423 8.06234 197.271 8.54719 196.966 8.85195C196.662 9.15671 196.179 9.30909 195.515 9.30909H184.483V11.6779H192.156C192.819 11.6779 193.303 11.8303 193.607 12.1351C193.911 12.4398 194.063 12.9247 194.063 13.5896V18.0364C194.063 18.7013 193.911 19.1861 193.607 19.4909C193.303 19.7957 192.819 19.9481 192.156 19.9481H184.483V22.6909H195.515C196.179 22.6909 196.662 22.8433 196.966 23.1481C197.271 23.4528 197.423 23.9377 197.423 24.6026V29.4649C197.423 30.1299 197.271 30.6147 196.966 30.9195C196.662 31.2242 196.179 31.3766 195.515 31.3766H176.272ZM195.515 30.961C196.04 30.961 196.414 30.8502 196.635 30.6286C196.884 30.3792 197.008 29.9913 197.008 29.4649V24.6026C197.008 24.0762 196.884 23.7022 196.635 23.4805C196.414 23.2312 196.04 23.1065 195.515 23.1065H184.069V19.5325H192.156C192.681 19.5325 193.054 19.4216 193.275 19.2C193.524 18.9506 193.649 18.5628 193.649 18.0364V13.5896C193.649 13.0632 193.524 12.6892 193.275 12.4675C193.054 12.2182 192.681 12.0935 192.156 12.0935H184.069V8.89351H195.515C196.04 8.89351 196.414 8.78269 196.635 8.56104C196.884 8.31169 197.008 7.92381 197.008 7.3974V2.53507C197.008 2.00866 196.884 1.63463 196.635 1.41299C196.414 1.16364 196.04 1.03896 195.515 1.03896H176.272C175.747 1.03896 175.359 1.16364 175.111 1.41299C174.889 1.63463 174.779 2.00866 174.779 2.53507V29.4649C174.779 29.9913 174.889 30.3792 175.111 30.6286C175.359 30.8502 175.747 30.961 176.272 30.961H195.515ZM193.275 26.8052V27.2208H179.299V4.77922H193.275V5.19481H179.714V15.626H189.916V16.0416H179.714V26.8052H193.275Z" fill="white"/>
<path d="M228 22.4831C228 25.4753 227.129 27.7056 225.387 29.174C223.673 30.6424 221.005 31.3766 217.383 31.3766H203.407C202.743 31.3766 202.26 31.2242 201.955 30.9195C201.651 30.6147 201.499 30.1299 201.499 29.4649V2.53507C201.499 1.87013 201.651 1.38528 201.955 1.08052C202.26 0.775759 202.743 0.623378 203.407 0.623378H217.383C221.005 0.623378 223.673 1.35758 225.387 2.82597C227.129 4.29437 228 6.52468 228 9.51688V22.4831ZM217.383 30.961C220.839 30.961 223.397 30.2684 225.055 28.8831C226.742 27.4978 227.585 25.3645 227.585 22.4831V9.51688C227.585 6.6355 226.742 4.50217 225.055 3.11688C223.397 1.7316 220.839 1.03896 217.383 1.03896H203.407C202.882 1.03896 202.495 1.16364 202.246 1.41299C202.025 1.63463 201.914 2.00866 201.914 2.53507V29.4649C201.914 29.9913 202.025 30.3792 202.246 30.6286C202.495 30.8502 202.882 30.961 203.407 30.961H217.383ZM206.434 27.2208V4.77922H216.471C217.881 4.77922 219.014 4.9316 219.871 5.23637C220.756 5.54113 221.434 5.95671 221.904 6.48312C222.374 6.98182 222.692 7.59134 222.857 8.31169C223.023 9.00433 223.106 9.75238 223.106 10.5558V21.5688C223.106 22.3723 223.023 23.1203 222.857 23.813C222.719 24.5056 222.415 25.1013 221.945 25.6C221.475 26.0987 220.798 26.5004 219.913 26.8052C219.028 27.0823 217.881 27.2208 216.471 27.2208H206.434ZM216.471 5.19481H206.849V26.8052H216.471C217.798 26.8052 218.862 26.6805 219.664 26.4312C220.494 26.1541 221.129 25.7939 221.572 25.3507C222.014 24.8797 222.305 24.3255 222.443 23.6883C222.609 23.0234 222.692 22.3169 222.692 21.5688V10.5558C222.692 9.80779 222.609 9.1013 222.443 8.43636C222.277 7.77143 221.973 7.20346 221.53 6.73247C221.088 6.26147 220.452 5.88745 219.623 5.61039C218.821 5.33333 217.77 5.19481 216.471 5.19481ZM211.328 8.97662H216.263C216.927 8.97662 217.411 9.14286 217.715 9.47533C218.047 9.78009 218.213 10.2788 218.213 10.9714V21.0701C218.213 21.7628 218.047 22.2753 217.715 22.6078C217.411 22.9403 216.927 23.1065 216.263 23.1065H211.328V8.97662ZM216.263 9.39221H211.743V22.6909H216.263C216.789 22.6909 217.176 22.5662 217.425 22.3169C217.673 22.0398 217.798 21.6242 217.798 21.0701V10.9714C217.798 10.445 217.673 10.0571 217.425 9.80779C217.176 9.53074 216.789 9.39221 216.263 9.39221Z" fill="white"/>
</svg>
