<svg width="152" height="32" viewBox="0 0 152 32" fill="none" xmlns="http://www.w3.org/2000/svg">
<path d="M11.2498 2.90754H21.7826V14.6232L11.2498 2.90754ZM0.102426 9.783H0C0 7.43417 0.637317 5.70105 1.91195 4.58364C3.18658 3.46624 5.14975 2.90754 7.80144 2.90754L21.7826 19.9081C21.7826 22.1657 21.1737 23.7791 19.956 24.7483C18.7724 25.6946 16.8377 26.1678 14.1518 26.1678L0.102426 9.783ZM0.0512129 14.4009L10.1914 26.1849H0.0512129V14.4009Z" fill="white"/>
<path d="M26.1869 0H35.3711V26.1849H26.1869V0ZM38.5121 8.73971H40.0485C44.2366 8.73971 46.7347 10.165 47.5427 13.0155C47.8158 13.9391 47.9524 15.0052 47.9524 16.2138V26.1849H38.5121V8.73971Z" fill="white"/>
<path d="M64.7161 8.73971H74.1393V26.1849H73.0638C70.1048 26.1849 67.9766 25.6661 66.6792 24.6285C65.3705 23.5795 64.7161 21.8464 64.7161 19.4292V8.73971ZM52.3908 17.6676C52.3908 16.4133 52.5559 15.2503 52.8859 14.1785C53.2159 13.0953 53.7281 12.1489 54.4223 11.3394C55.9245 9.60627 58.0755 8.73971 60.8751 8.73971H62.1896V26.1849H61.3019C58.434 26.1849 56.2147 25.3982 54.6442 23.8247C53.142 22.3196 52.3908 20.2672 52.3908 17.6676Z" fill="white"/>
<path d="M90.5274 8.73971H91.8419C94.6415 8.73971 96.7925 9.60627 98.2947 11.3394C99.649 12.9129 100.326 14.9995 100.326 17.5991C100.326 20.2444 99.575 22.3196 98.0728 23.8247C96.5022 25.3982 94.283 26.1849 91.4151 26.1849H90.5274V8.73971ZM78.5777 8.73971H87.7619V32H78.5777V8.73971Z" fill="white"/>
<path d="M117.073 8.73971H118.199C122.501 8.73971 125.125 10.1992 126.069 13.1181C126.376 14.0873 126.53 15.2104 126.53 16.4874V18.3688H117.073V8.73971ZM104.748 17.6676C104.748 16.4133 104.913 15.2503 105.243 14.1785C105.573 13.0953 106.085 12.1489 106.779 11.3394C108.281 9.60627 110.432 8.73971 113.232 8.73971H114.546V26.1849H113.659C110.791 26.1849 108.571 25.3982 107.001 23.8247C105.499 22.3196 104.748 20.2672 104.748 17.6676ZM117.073 21.721H125.608V22.1999C125.608 23.2603 125.227 24.1554 124.465 24.8851C123.531 25.7516 122.205 26.1849 120.487 26.1849H117.073V21.721Z" fill="white"/>
<path d="M132.642 15.3073C132.607 15.1705 132.579 15.0223 132.556 14.8626L132.488 14.3838C132.442 14.0417 132.42 13.6426 132.42 13.1865C132.42 12.719 132.522 12.1831 132.727 11.5788C132.943 10.9745 133.29 10.45 133.768 10.0053C134.792 9.04757 136.374 8.56868 138.514 8.56868L151.198 19.737C151.311 20.1475 151.368 20.6948 151.368 21.3789C151.368 22.0517 151.255 22.6959 151.027 23.3116C150.799 23.9159 150.435 24.4404 149.934 24.8851C148.865 25.8657 147.305 26.356 145.257 26.356L132.761 15.3073H132.642ZM151.488 8.73971C151.829 9.26421 152 9.98254 152 10.8947C152 12.5822 151.368 13.8422 150.105 14.6745L143.26 8.73971H151.488ZM132.146 26.1849C131.805 25.6604 131.634 24.9421 131.634 24.0299C131.634 22.3538 132.26 21.0996 133.512 20.2672L140.375 26.1849H132.146Z" fill="white"/>
</svg>
