<svg width="203" height="36" viewBox="0 0 203 36" fill="none" xmlns="http://www.w3.org/2000/svg">
<path d="M16.48 4.17604H9.24801V26H7.84001V4.17604H0.640015V2.96004H16.48V4.17604Z" fill="white"/>
<path d="M26.5343 26H25.1263V2.96004H26.5343V26Z" fill="white"/>
<path d="M47.997 19.44L40.061 7.88804C39.773 7.47204 39.549 7.05604 39.389 6.76804C39.453 7.31204 39.453 7.76004 39.453 8.20804V26H38.045V2.57604H38.077L47.997 17.072L57.917 2.57604H57.949V26H56.541V8.20804C56.541 7.76004 56.541 7.31204 56.605 6.76804C56.445 7.05604 56.221 7.47204 55.933 7.88804L47.997 19.44Z" fill="white"/>
<path d="M82.1345 26H68.1825V2.96004H81.6545V4.17604H69.5905V13.744H79.8945V14.96H69.5905V24.784H82.1345V26Z" fill="white"/>
<path d="M78.752 35.536H72L83.808 8.20804H90.56L78.752 35.536Z" fill="white"/>
<path d="M84.2025 28.144L95.8185 0.81604H97.3225L85.7065 28.144H84.2025Z" fill="white"/>
<path d="M99.9027 19.472C103.615 21.008 106.431 22.576 106.431 26.864C106.431 31.248 103.167 33.872 97.1507 33.872C94.5587 33.872 91.9027 33.392 90.1107 32.624V26.224C92.2547 27.408 94.8148 28.048 96.7988 28.048C98.8148 28.048 99.9027 27.696 99.9027 26.864C99.9027 25.904 98.3987 25.456 95.9347 24.496C92.2227 23.056 89.5987 21.52 89.5987 17.104C89.5987 12.784 93.1507 9.87204 98.6227 9.87204C100.927 9.87204 103.295 10.288 104.895 10.96V17.104C103.487 16.176 101.343 15.632 99.1987 15.632C97.3107 15.632 96.1587 16.176 96.1587 17.104C96.1587 17.936 97.5667 18.512 99.9027 19.472Z" fill="white"/>
<path d="M121.414 10.352C127.142 10.352 131.238 12.976 131.238 18.448C131.238 23.952 127.142 26.544 121.414 26.544H120.229V33.392H113.542V10.352H121.414ZM121.766 15.984H120.229V20.912H121.766C123.206 20.912 124.486 20.304 124.486 18.448C124.486 16.624 123.206 15.984 121.766 15.984Z" fill="white"/>
<path d="M149.8 33.392L148.36 30.352H141.352L139.944 33.392H133L144.712 10.032H145.032L156.744 33.392H149.8ZM144.84 21.712C144.648 22.544 143.784 24.656 143.208 26H146.536C145.96 24.656 145.096 22.544 144.904 21.712H144.84Z" fill="white"/>
<path d="M160.415 21.872C160.415 15.28 165.47 9.87204 172.702 9.87204C175.646 9.87204 177.662 10.544 179.262 11.376V17.456C178.014 16.816 176.063 15.984 173.375 15.984C169.279 15.984 167.135 18.832 167.135 21.872C167.135 24.976 169.215 27.76 173.023 27.76C175.935 27.76 178.079 26.96 179.423 26.288V32.432C177.823 33.264 175.167 33.872 172.383 33.872C165.471 33.872 160.415 28.56 160.415 21.872Z" fill="white"/>
<path d="M186.891 33.392V10.352H202.316V15.984H193.579V19.056H201.068V24.336H193.579V27.76H202.796V33.392H186.891Z" fill="white"/>
</svg>
