<svg width="195" height="32" viewBox="0 0 195 32" fill="none" xmlns="http://www.w3.org/2000/svg">
<path d="M0 1.33333V0H19.9583V1.33333H0ZM0 4V2.66667H19.9583V4H0ZM0 6.66667V5.33333H19.9583V6.66667H14.6361V30.6667H13.3055V6.66667H11.975V30.6667H10.6444V6.66667H9.31387V30.6667H7.98332V6.66667H6.65277V30.6667H5.32221V6.66667H0Z" fill="white"/>
<path d="M29.6418 30.6667H28.3112V0H29.6418V30.6667ZM26.9807 30.6667H25.6501V0H26.9807V30.6667ZM24.3196 30.6667H22.989V0H24.3196V30.6667ZM32.3029 24H46.4585V25.3333H32.3029V26.6667H46.4585V28H32.3029V29.3333H46.4585V30.6667H30.9723V0H46.4585V1.33333H32.3029V2.66667H46.4585V4H32.3029V5.33333H46.4585V6.66667H32.3029V12H39.5655V13.3333H32.3029V14.6667H39.5655V16H32.3029V17.3333H39.5655V18.6667H32.3029V24Z" fill="white"/>
<path d="M59.0248 14.0926L58.2302 15.3519L48.6022 0H50.173L59.0248 14.0926ZM65.5852 24.1111L66.3614 22.8519L71.277 30.6667H69.7062L65.5852 24.1111ZM60.5956 11.6111L59.801 12.8519L51.7437 0H53.2961L60.5956 11.6111ZM67.156 21.6111L67.9321 20.3519L74.4186 30.6667H72.8478L67.156 21.6111ZM62.1664 9.09259L61.3903 10.3333L54.8853 0H56.4561L62.1664 9.09259ZM68.7453 19.0926L69.5214 17.8333L77.5787 30.6667H76.0079L68.7453 19.0926ZM63.7372 6.59259L62.961 7.85185L58.0269 0H59.5977L63.7372 6.59259ZM70.2976 16.5926L71.0737 15.3333L80.7202 30.6667H79.1494L70.2976 16.5926ZM78.2255 0H79.7962L60.5402 30.6667H58.9694L78.2255 0ZM75.1023 0H76.6547L57.3986 30.6667H55.8278L75.1023 0ZM71.9423 0H73.5131L54.2385 30.6667H52.6677L71.9423 0ZM68.8007 0H70.3715L51.0969 30.6667H49.5262L68.8007 0Z" fill="white"/>
<path d="M82.3465 1.33333V0H102.305V1.33333H82.3465ZM82.3465 4V2.66667H102.305V4H82.3465ZM82.3465 6.66667V5.33333H102.305V6.66667H96.9826V30.6667H95.652V6.66667H94.3215V30.6667H92.9909V6.66667H91.6603V30.6667H90.3298V6.66667H88.9992V30.6667H87.6687V6.66667H82.3465Z" fill="white"/>
<path d="M126.883 17.1852V0H128.214V17.1852C128.214 19.0617 127.474 20.6667 125.996 22C124.518 23.3333 122.744 24 120.674 24C118.604 24 116.83 23.3333 115.352 22C113.873 20.6667 113.134 19.0617 113.134 17.1852V0H114.465V17.1852C114.465 18.6914 115.068 19.9815 116.276 21.0556C117.495 22.1296 118.961 22.6667 120.674 22.6667C122.386 22.6667 123.846 22.1296 125.054 21.0556C126.273 19.9815 126.883 18.6914 126.883 17.1852ZM129.544 17.1852V0H130.875V17.1852C130.875 18.4691 130.604 19.6975 130.062 20.8704C129.52 22.0309 128.793 23.037 127.881 23.8889C126.969 24.7407 125.885 25.4198 124.629 25.9259C123.372 26.4198 122.054 26.6667 120.674 26.6667C119.294 26.6667 117.976 26.4198 116.719 25.9259C115.462 25.4198 114.378 24.7407 113.467 23.8889C112.555 23.037 111.828 22.0309 111.286 20.8704C110.744 19.6975 110.473 18.4691 110.473 17.1852V0H111.803V17.1852C111.803 18.6543 112.198 20.0185 112.986 21.2778C113.787 22.5247 114.865 23.5123 116.22 24.2407C117.588 24.9691 119.072 25.3333 120.674 25.3333C122.275 25.3333 123.754 24.9691 125.109 24.2407C126.476 23.5123 127.554 22.5247 128.343 21.2778C129.144 20.0185 129.544 18.6543 129.544 17.1852ZM132.205 17.1852V0H133.536V17.1852C133.536 18.8272 133.191 20.4012 132.501 21.9074C131.823 23.4012 130.912 24.6914 129.766 25.7778C128.62 26.8642 127.253 27.7284 125.663 28.3704C124.074 29.0123 122.411 29.3333 120.674 29.3333C118.937 29.3333 117.274 29.0123 115.684 28.3704C114.095 27.7284 112.727 26.8642 111.582 25.7778C110.436 24.6914 109.518 23.4012 108.828 21.9074C108.151 20.4012 107.812 18.8272 107.812 17.1852V0H109.142V17.1852C109.142 19.1358 109.66 20.9444 110.695 22.6111C111.73 24.2654 113.128 25.5802 114.89 26.5556C116.664 27.5185 118.592 28 120.674 28C122.756 28 124.678 27.5185 126.44 26.5556C128.214 25.5802 129.618 24.2654 130.653 22.6111C131.688 20.9444 132.205 19.1358 132.205 17.1852ZM134.866 17.1852V0H136.197V17.1852C136.197 19.8519 135.501 22.3272 134.109 24.6111C132.717 26.8827 130.825 28.6852 128.435 30.0185C126.058 31.3395 123.47 32 120.674 32C117.877 32 115.284 31.3395 112.894 30.0185C110.516 28.6852 108.631 26.8827 107.239 24.6111C105.847 22.3272 105.151 19.8519 105.151 17.1852V0H106.481V17.1852C106.481 19 106.857 20.7407 107.609 22.4074C108.36 24.0741 109.37 25.5123 110.639 26.7222C111.908 27.9198 113.417 28.8765 115.167 29.5926C116.929 30.3086 118.764 30.6667 120.674 30.6667C122.583 30.6667 124.413 30.3086 126.162 29.5926C127.924 28.8765 129.439 27.9198 130.708 26.7222C131.977 25.5123 132.988 24.0741 133.739 22.4074C134.491 20.7407 134.866 19 134.866 17.1852Z" fill="white"/>
<path d="M149.65 15.4074H157.671C158.89 15.4074 159.919 15.0123 160.757 14.2222C161.607 13.4321 162.032 12.3086 162.032 10.8519C162.032 9.77778 161.588 8.81481 160.701 7.96296C159.814 7.09877 158.804 6.66667 157.671 6.66667H146.25V30.6667H144.919V5.33333H157.671C159.174 5.33333 160.498 5.89506 161.644 7.01852C162.79 8.12963 163.362 9.40741 163.362 10.8519C163.362 12.6296 162.808 14.0556 161.699 15.1296C160.59 16.2037 159.248 16.7407 157.671 16.7407H149.65V15.4074ZM149.65 18.0741H157.671C159.592 18.0741 161.243 17.4012 162.623 16.0556C164.003 14.6975 164.693 12.963 164.693 10.8519C164.693 9.03704 163.985 7.44444 162.568 6.07407C161.163 4.69136 159.531 4 157.671 4H143.589V30.6667H142.258V2.66667H157.671C159.137 2.66667 160.51 3.04321 161.792 3.7963C163.085 4.54938 164.114 5.56173 164.878 6.83333C165.642 8.09259 166.024 9.4321 166.024 10.8519C166.024 13.284 165.198 15.321 163.547 16.963C161.909 18.5926 159.95 19.4074 157.671 19.4074H149.65V18.0741ZM149.65 20.7407H157.671C159.395 20.7407 160.997 20.3148 162.475 19.463C163.954 18.6111 165.136 17.4259 166.024 15.9074C166.911 14.3765 167.354 12.6914 167.354 10.8519C167.354 9.18518 166.911 7.62346 166.024 6.16667C165.149 4.69753 163.966 3.52469 162.475 2.64815C160.985 1.7716 159.383 1.33333 157.671 1.33333H140.928V30.6667H139.597V0H157.671C159.605 0 161.422 0.5 163.122 1.5C164.822 2.48765 166.171 3.82099 167.169 5.5C168.179 7.16667 168.685 8.95062 168.685 10.8519C168.685 13.0494 168.21 14.9815 167.262 16.6481C166.325 18.3148 165.05 19.6173 163.436 20.5556L166.874 30.6667H165.469L162.18 21.1852C161.687 21.3827 161.311 21.5185 161.052 21.5926L164.139 30.6667H162.734L159.722 21.9074C159.611 21.9321 159.217 21.9753 158.539 22.037L161.404 30.6667H159.999L157.172 22.0741H155.97L158.668 30.6667H157.264L154.547 22.0741H149.65V20.7407ZM148.911 30.6667H147.581V8H157.671C158.496 8 159.204 8.28395 159.796 8.85185C160.399 9.40741 160.701 10.0741 160.701 10.8519C160.701 13 159.691 14.0741 157.671 14.0741H149.65V12.7407H157.671C158.2 12.7407 158.613 12.6049 158.909 12.3333C159.217 12.0494 159.371 11.5556 159.371 10.8519C159.371 10.4198 159.204 10.0617 158.872 9.77778C158.551 9.48148 158.151 9.33333 157.671 9.33333H148.911V30.6667Z" fill="white"/>
<path d="M178.183 30.6667H176.853V0H178.183V30.6667ZM175.522 30.6667H174.192V0H175.522V30.6667ZM172.861 30.6667H171.531V0H172.861V30.6667ZM180.844 24H195V25.3333H180.844V26.6667H195V28H180.844V29.3333H195V30.6667H179.514V0H195V1.33333H180.844V2.66667H195V4H180.844V5.33333H195V6.66667H180.844V12H188.107V13.3333H180.844V14.6667H188.107V16H180.844V17.3333H188.107V18.6667H180.844V24Z" fill="white"/>
</svg>
