<svg width="146" height="32" viewBox="0 0 146 32" fill="none" xmlns="http://www.w3.org/2000/svg">
<path d="M0 0.816328H18.8782V6.56327H12.8685V24.3265H6.00967V6.56327H0V0.816328Z" fill="white"/>
<path d="M19.2 24.3265V8H25.2096L25.4709 9.86123C26.4507 8.65306 28.2144 7.5102 30.0761 7.5102C30.6314 7.5102 31.154 7.57551 31.154 7.57551V14.0735C31.154 14.0735 30.664 13.8122 29.8802 13.8122C28.0511 13.8122 25.8628 14.7592 25.8628 17.5347V24.3265H19.2Z" fill="white"/>
<path d="M33.6303 31.5755V25.6C33.8916 25.7306 34.7082 26.0245 35.7533 26.0245C37.419 26.0245 38.3989 25.3388 38.8888 24.5224L32.2912 8H39.5094L41.0444 13.4531C41.5017 15.0857 41.9263 16.7837 42.1876 18.4816H42.2529C42.4815 16.7837 42.9061 15.0857 43.3634 13.4531L44.8985 8H52.0839L45.8456 24.8163C43.9513 29.9429 40.6525 32 36.7985 32C35.0021 32 34.0223 31.7388 33.6303 31.5755Z" fill="white"/>
<path d="M76.7449 24.3265L75.2752 21.2245H68.1224L66.6853 24.3265H59.5978L71.5518 0.489797H71.8784L83.8324 24.3265H76.7449ZM71.6825 12.4082C71.4865 13.2571 70.6046 15.4122 70.0167 16.7837H73.4135C72.8256 15.4122 71.9437 13.2571 71.7478 12.4082H71.6825Z" fill="white"/>
<path d="M90.5981 20.3429C90.5981 20.9633 92.9498 21.1265 95.53 21.649C98.7961 22.302 100.168 23.8367 100.168 26.2531C100.168 29.9102 96.3465 32 90.8921 32C86.3195 32 82.6941 30.5633 82.6941 27.7878C82.6941 26.0245 84.2619 24.7184 86.4175 24.1633C85.307 23.9347 84.2292 23.1837 84.2292 21.8122C84.2292 20.7347 85.1437 19.5265 87.1034 18.8735C84.8498 17.9592 83.3474 16.1306 83.3474 13.6163C83.3474 9.82857 86.7441 7.5102 90.8594 7.5102C91.9373 7.5102 92.9498 7.67347 93.8643 8H100.037V12.6041H98.5022L98.0449 12.5388C98.1102 12.898 98.1429 13.2571 98.1429 13.6163C98.1429 16.7184 95.8566 18.7755 92.8191 19.3959C91.578 19.6898 90.5981 19.9184 90.5981 20.3429ZM91.0881 28.049C92.3292 28.049 93.603 27.5592 93.603 26.7429C93.603 26.2204 93.2764 25.8286 92.5905 25.6653C92.2312 25.5673 91.4473 25.4694 90.9248 25.4694C89.8143 25.4694 88.9651 26.0245 88.9651 26.7755C88.9651 27.6245 89.9123 28.049 91.0881 28.049ZM90.8594 15.5429C91.8719 15.5429 92.4272 14.7918 92.4272 13.7796C92.4272 12.7673 91.8719 11.9837 90.8594 11.9837C89.8796 11.9837 89.2917 12.7673 89.2917 13.7796C89.2917 14.7918 89.8796 15.5429 90.8594 15.5429Z" fill="white"/>
<path d="M101.912 14.3673V8.52245C102.826 8.13061 105.08 7.5102 108.15 7.5102C113.572 7.5102 116.348 10.0571 116.348 14.1388V24.3265H110.371L110.24 23.249C110.175 22.6612 110.273 22.2694 110.273 22.2694H110.208C109.554 23.7388 108.085 24.8163 105.7 24.8163C103.12 24.8163 100.507 23.3469 100.507 19.7551C100.507 15.7388 104.753 13.8122 109.718 14.5306V14.498C109.718 13.3878 108.738 12.9633 106.974 12.9633C105.112 12.9633 103.12 13.5837 101.912 14.3673ZM107.693 19.8857C108.771 19.8857 109.554 19.102 109.554 17.4694C107.464 17.1429 106.615 17.9592 106.615 18.8408C106.615 19.5265 107.072 19.8857 107.693 19.8857Z" fill="white"/>
<path d="M118.966 3.36327C118.966 1.27347 120.305 0 122.461 0C124.616 0 125.955 1.27347 125.955 3.36327C125.955 5.45306 124.616 6.72653 122.461 6.72653C120.305 6.72653 118.966 5.45306 118.966 3.36327ZM125.792 24.3265H119.129V8H125.792V24.3265Z" fill="white"/>
<path d="M146 14.1388V24.3265H139.337V15.1184C139.337 14.1061 138.782 13.4857 137.965 13.4857C136.561 13.4857 135.712 14.5306 135.712 16.098V24.3265H129.049V8H135.058L135.254 9.46939C135.32 9.92653 135.222 10.2204 135.124 10.4816H135.189C135.94 8.94694 138.129 7.5102 140.252 7.5102C143.583 7.5102 146 9.6 146 14.1388Z" fill="white"/>
</svg>
