<svg width="149" height="4" viewBox="0 0 149 4" fill="none" xmlns="http://www.w3.org/2000/svg">
<path fill-rule="evenodd" clip-rule="evenodd" d="M0.660034 4V0H5.28179V4H0.660034ZM128.444 4H123.822V0H128.444V4ZM138.389 4H133.768V0H138.389V4ZM148.848 4H144.226V0H148.848V4ZM94.5299 0V4H89.9081V0H94.5299ZM77.0959 0V4H81.7176V0H77.0959ZM68.3533 0V4H63.7316V0H68.3533ZM54.0785 0V4H58.7003V0H54.0785ZM47.9535 0V4H43.3317V0H47.9535ZM33.6202 0V4H38.3005V0H33.6202ZM24.9389 0V4H20.3171V0H24.9389ZM10.6056 0H15.2273V4H10.6056V0Z" fill="white"/>
</svg>
