<svg width="160" height="5" viewBox="0 0 160 5" fill="none" xmlns="http://www.w3.org/2000/svg">
<path fill-rule="evenodd" clip-rule="evenodd" d="M47.9535 5V0.371948H33.6202V5H38.3005V4.87652H43.3317V5H47.9535ZM68.3533 5V0.371948H54.0785V5H58.7003V4.87652H63.7316V5H68.3533ZM94.5299 5V0.371948H77.0959V5H81.7176V4.87652H89.9081V5H94.5299ZM128.444 5H123.822V0.371948H138.389V5H133.768V4.99352H128.444V5ZM148.848 5H144.226V0.371948H159.963V4.87652H148.848V5ZM24.9389 5H20.3171V0.371948H24.9389V5ZM15.2273 5V0.371948H10.6056V5H15.2273ZM5.28179 5H0.660034V0.371948H5.28179V5Z" fill="white"/>
</svg>
