<svg width="162" height="24" viewBox="0 0 162 24" fill="none" xmlns="http://www.w3.org/2000/svg">
<path fill-rule="evenodd" clip-rule="evenodd" d="M144.226 0H148.848V4.76866H161.075V9.27323H148.848V18.8089H161.66V23.3719H144.226V0ZM77.0959 0V23.3719H81.7176V9.27323H94.5299V0H89.9081V4.76866H81.7176V0H77.0959ZM54.0785 0V23.3719H58.7003V9.27323H66.8907V23.3719H71.5125V4.76866H68.3533V0H63.7316V4.76866H58.7003V0H54.0785ZM33.6202 0V4.76866H30.5195V23.3719H35.1413V9.27323H43.3317V23.3719H47.9535V0H43.3317V4.76866H38.3005V0H33.6202ZM24.9389 0V14.4213H15.2273V23.3719H0.660034V0H5.28179V18.6919H10.6056V0H15.2273V9.91674H20.3171V0H24.9389ZM123.822 0H128.444V23.3719H123.822V4.76866H118.732V23.3719H114.111V0.322587H123.822V0ZM133.768 0H138.389V23.3719H133.768V0Z" fill="white"/>
</svg>
