<svg width="161" height="33" viewBox="0 0 161 33" fill="none" xmlns="http://www.w3.org/2000/svg">
<path d="M4.62176 0.371948V27.6919H9.94555V0.371948H14.5673V18.9167H19.6571V0.371948H24.2788V23.4213H14.5673V32.3719H0V0.371948H4.62176Z" fill="white"/>
<path d="M42.6717 32.3719V18.2732H34.4813V32.3719H29.8595V13.7687H32.9602V0.371948H47.2935V32.3719H42.6717ZM42.6717 4.87652H37.6404V13.7687H42.6717V4.87652Z" fill="white"/>
<path d="M66.2307 32.3719V18.2732H58.0402V32.3719H53.4185V0.371948H67.6933V13.7687H70.8525V32.3719H66.2307ZM63.0715 4.87652H58.0402V13.7687H63.0715V4.87652Z" fill="white"/>
<path d="M81.0576 18.2732V32.3719H76.4359V0.371948H93.8698V18.2732H81.0576ZM89.2481 4.87652H81.0576V13.7687H89.2481V4.87652Z" fill="white"/>
<path d="M133.108 32.3719V4.99352H127.784V32.3719H123.162V13.7687H118.072V32.3719H113.451V9.32259H123.162V0.371948H137.729V32.3719H133.108Z" fill="white"/>
<path d="M143.566 32.3719V0.371948H159.303V4.87652H148.188V13.7687H160.415V18.2732H148.188V27.8089H161V32.3719H143.566Z" fill="white"/>
</svg>
