<svg width="208" height="32" viewBox="0 0 208 32" fill="none" xmlns="http://www.w3.org/2000/svg">
<path d="M1.09941 2.45828L0.676561 2.37351C0.338281 2.28874 0 1.99205 0 1.6106C0 1.0596 0.380566 0.805298 1.18398 0.805298L9.00672 0.762914C9.76785 0.762914 10.1907 1.0596 10.1907 1.6106C10.1907 2.16159 9.93699 2.33113 9.09129 2.4159C8.28788 2.45828 7.99188 2.79735 7.99188 3.4755C7.99188 3.94172 8.03417 4.19603 8.54159 5.63709L15.3072 24.6676C15.3495 24.8795 15.5186 24.9642 15.6032 24.9642C15.7723 24.9642 15.8992 24.8371 15.9415 24.6676L20.0854 12.3338C20.5928 10.8503 20.6774 10.5113 20.6774 10.1722C20.6774 9.57881 20.1277 9.19735 19.1974 9.11258C18.4363 9.0702 18.1403 8.77351 18.1403 8.2649C18.1403 7.71391 18.5209 7.4596 19.282 7.4596H26.5127C27.3162 7.4596 27.6967 7.71391 27.6967 8.2649C27.6967 8.81589 27.4007 9.0702 26.5973 9.11258C25.667 9.19735 25.3288 9.45166 25.3288 10.257C25.3288 10.6808 25.3711 10.8079 25.9208 12.3762L30.3184 24.6676C30.3607 24.8371 30.4875 24.9642 30.6144 24.9642C30.7835 24.9642 30.9104 24.8371 30.995 24.6252L37.4646 5.63709C37.9297 4.23841 37.9297 4.06887 37.9297 3.64503C37.9297 2.79735 37.5492 2.45828 36.3652 2.4159C35.604 2.37351 35.308 2.07682 35.308 1.52583C35.308 0.974834 35.6463 0.762914 36.4497 0.762914H41.9891C42.7925 0.762914 43.1731 0.974834 43.1731 1.6106C43.1731 1.94967 42.8771 2.28874 42.4542 2.33113L42.1159 2.4159C41.1857 2.54305 40.8051 3.13642 39.9171 5.63709L31.0795 30.6013C30.9527 31.1099 30.8258 31.2371 30.403 31.2371H28.2887C27.7813 31.2371 27.6967 31.1523 27.5276 30.6437L22.0728 15.343C21.9882 15.004 21.8614 14.8344 21.7345 14.8344C21.5231 14.8344 21.354 15.004 21.2694 15.3007L15.9838 30.6861C15.8146 31.1947 15.7723 31.2371 15.3495 31.2371H13.2775C12.897 31.2371 12.6855 31.1099 12.5164 30.6861L3.34052 5.67947C2.41025 3.17881 2.02968 2.62782 1.09941 2.45828Z" fill="white"/>
<path d="M48.7121 12.1642V27.2106C48.7121 28.9483 49.0926 29.4993 50.6572 29.7536C51.2915 29.9232 51.5875 30.0927 51.5875 30.5589C51.5875 31.0252 51.2492 31.2371 50.5726 31.2371H42.5385C41.8619 31.2371 41.5236 31.0252 41.5236 30.5589C41.5236 30.0927 41.735 29.8808 42.4539 29.7536C43.215 29.5841 43.7647 29.3298 43.9762 28.906C44.1876 28.5669 44.2299 28.1854 44.2299 27.2106V18.1404C44.2299 16.6146 43.9339 16.0636 43.0459 15.894C42.7922 15.8093 42.7922 15.8093 42.6653 15.8093C42.327 15.6397 42.0733 15.3854 42.0733 15.0887C42.0733 14.8344 42.2425 14.6225 42.5385 14.453L47.8241 11.5709C47.8664 11.5285 47.951 11.4861 48.1201 11.4861C48.4161 11.4861 48.6275 11.6556 48.7121 12.1642ZM42.7076 7.4596C42.6653 7.33245 42.623 7.12053 42.623 6.99338C42.623 6.23046 43.0459 5.46755 43.807 4.87417C44.7796 4.11126 46.0058 3.60265 47.1052 3.60265C48.2892 3.60265 49.0081 4.15364 49.0081 4.91656C49.0081 5.67947 48.6275 6.4 47.8241 7.03576C46.8515 7.84106 45.583 8.30729 44.4836 8.30729C43.6802 8.30729 43.0036 7.96821 42.7076 7.4596Z" fill="white"/>
<path d="M59.5714 5.55232V11.9947H64.2651C64.4765 11.9947 64.6456 12.0371 64.6456 12.1219C64.6456 12.1642 64.6033 12.249 64.5188 12.4609L64.1382 13.351C64.0536 13.6053 63.7154 13.7748 63.5039 13.7748H59.9943C59.7406 13.7748 59.6137 13.9444 59.6137 14.3258V27.6344C59.6137 29.2026 60.1634 29.8808 61.432 29.8808C62.1085 29.8808 62.6582 29.6689 63.1234 29.3298C63.9268 28.6517 64.0536 28.5669 64.2651 28.5669C64.6456 28.5669 64.8148 28.8212 64.8148 29.1603C64.8148 29.4146 64.6879 29.7113 64.4342 30.0079C63.3348 31.1947 61.5588 31.8305 59.36 31.8305C56.7383 31.8305 54.8355 30.6861 54.8355 29.0755C54.8355 28.906 54.8778 28.5669 54.9201 28.2278C55.0892 27.2106 55.1315 26.2781 55.1315 24.8371V14.3258C55.1315 14.0291 54.9201 13.8172 54.6664 13.8172H53.0172C52.5098 13.8172 52.2561 13.5629 52.2561 13.1391C52.2561 12.7152 52.4675 12.4185 53.2287 11.8676C54.9201 10.7232 57.2035 7.75629 58.0914 5.72185C58.3029 5.04371 58.5989 4.78941 59.0217 4.78941C59.3177 4.78941 59.5714 5.12848 59.5714 5.55232Z" fill="white"/>
<path d="M71.3775 0.890067V14.6225C71.3775 14.7921 71.4198 14.9192 71.5044 14.9192C71.5467 14.9192 71.6313 14.8768 71.6735 14.7497C73.1958 12.7576 75.5638 11.4861 77.7203 11.4861C80.8071 11.4861 82.7945 13.2662 83.3442 16.657L85.0356 27.2106C85.3316 28.9907 85.7545 29.4993 87.023 29.7536C87.7419 29.8808 87.9956 30.0927 87.9956 30.5589C87.9956 31.0252 87.615 31.2371 86.9807 31.2371H79.4117C78.6929 31.2371 78.3969 31.0252 78.3969 30.5166C78.3969 30.0927 78.6083 29.8808 79.2849 29.7536C80.2151 29.5417 80.638 29.1179 80.638 28.4397C80.638 28.2702 80.5957 27.8887 80.5111 27.2106L79.1157 17.9285C78.7774 15.7245 77.5935 14.4954 75.8175 14.4954C73.4495 14.4954 71.4198 16.4874 71.4198 18.7762V27.2106C71.4198 28.9907 71.8004 29.4993 73.2381 29.7536C73.9147 29.8808 74.1261 30.0927 74.1261 30.5589C74.1261 31.0252 73.8301 31.2371 73.1112 31.2371H65.3731C64.6542 31.2371 64.3582 31.0252 64.3582 30.5166C64.3582 30.0927 64.5696 29.9232 65.2885 29.7536C66.0073 29.6265 66.5148 29.3298 66.7262 28.906C66.8953 28.5669 66.9799 28.1854 66.9799 27.1682V7.07815C66.9799 5.3404 66.7262 4.83179 65.7536 4.61987C65.5422 4.57748 65.4576 4.5351 65.4153 4.5351C65.0771 4.45033 64.8656 4.15364 64.8656 3.85695C64.8656 3.60265 64.9925 3.34834 65.2885 3.17881L70.5741 0.29669C70.6587 0.254306 70.7433 0.254306 70.8278 0.254306C71.1661 0.254306 71.3353 0.466227 71.3775 0.890067Z" fill="white"/>
<path d="M119.188 0.169537L119.569 0.762914L123.332 5.76424C123.544 6.01854 123.671 6.27285 123.671 6.4C123.671 6.78146 123.332 7.07815 122.91 7.07815C122.656 7.07815 122.275 6.86623 121.726 6.35762C121.556 6.18808 121.134 5.89139 120.499 5.46755C119.527 4.7894 118.596 4.19603 117.666 3.68742C115.848 2.62782 113.438 1.99205 111.45 1.99205C108.363 1.99205 106.207 3.77219 106.207 6.23046C106.207 8.64636 107.941 9.8755 112.973 10.9351L117.201 11.8252C120.838 12.5881 122.867 13.3934 124.939 14.7921C127.434 16.4874 128.829 19.0305 128.829 21.955C128.829 27.804 123.713 31.8728 116.355 31.8728C114.241 31.8728 111.45 31.3642 108.659 30.6861C107.687 30.4318 107.475 30.347 107.179 30.347C106.757 30.347 106.503 30.5589 106.291 31.0676C105.953 31.7457 105.742 31.9576 105.234 31.9576C104.854 31.9576 104.685 31.8305 104.346 31.2371L100.583 24.8795C100.329 24.4556 100.245 24.2437 100.245 24.0318C100.245 23.6503 100.583 23.3113 100.921 23.3113C101.386 23.3113 101.725 23.5232 102.317 24.3709C103.12 25.5152 105.488 27.253 107.687 28.2702C109.97 29.3298 112.761 29.9656 115.214 29.9656C120.203 29.9656 123.713 27.253 123.713 23.3536C123.713 19.9205 121.387 17.9709 115.89 16.7417L111.704 15.8093C109.209 15.2583 106.63 14.3258 104.854 13.3086C102.486 11.9947 101.217 9.91788 101.217 7.4596C101.217 3.13642 104.981 0.0847696 110.309 0.0847696C112 0.0847696 113.776 0.381457 115.806 0.974834C116.186 1.10199 116.524 1.18675 116.736 1.18675C117.201 1.18675 117.624 0.932451 117.878 0.593377C118.131 0.29669 118.131 0.29669 118.216 0.169537C118.343 0.0423836 118.47 0 118.723 0C118.892 0 119.062 0.0423836 119.188 0.169537Z" fill="white"/>
<path d="M149.421 19.2848L136.651 23.2265C136.312 23.3536 136.185 23.4384 136.185 23.6503C136.185 23.8623 136.312 24.3709 136.566 24.9219C137.961 27.8464 140.541 29.6689 143.332 29.6689C145.404 29.6689 147.306 28.8212 148.913 27.0834C149.251 26.7444 149.463 26.6172 149.632 26.6172C150.013 26.6172 150.309 26.8715 150.309 27.2954C150.309 27.4649 150.182 27.804 150.013 28.0159C148.321 30.4318 145.065 31.8728 141.598 31.8728C135.467 31.8728 131.027 27.5073 131.027 21.4464C131.027 15.7245 135.213 11.3166 140.583 11.3166C143.585 11.3166 146.122 12.5881 148.025 15.0464C148.617 15.8093 148.998 16.6146 149.463 17.547C149.717 18.098 149.886 18.4795 149.886 18.7762C149.886 18.9881 149.717 19.2 149.421 19.2848ZM135.889 21.6159C135.932 21.6159 136.059 21.5735 136.27 21.5311L144.769 18.9457C145.108 18.8609 145.319 18.6914 145.319 18.4371C145.319 18.2252 145.065 17.5894 144.854 16.9113C144.473 16.0212 143.966 15.2583 143.374 14.6649C142.444 13.6901 141.09 13.1391 139.822 13.1391C137.073 13.1391 135.382 15.4702 135.382 19.1576C135.382 20.5987 135.551 21.6159 135.889 21.6159Z" fill="white"/>
<path d="M158.971 12.1642V15.2583C158.971 15.4278 158.971 15.555 159.013 15.555C159.098 15.555 159.267 15.3854 159.479 14.9616C160.578 12.9272 163.073 11.3589 165.187 11.3589C166.202 11.3589 167.09 11.5709 167.809 11.9947C168.02 12.1219 168.105 12.249 168.105 12.4185C168.105 12.5033 168.062 12.6305 168.02 12.7576L167.809 13.351C167.597 13.7748 167.428 14.2411 167.259 14.7497C166.963 15.555 166.794 16.1483 166.752 16.445C166.625 17.1656 166.371 17.4199 165.948 17.4199C165.568 17.4199 165.398 17.2079 165.356 16.5298C165.272 15.343 164.468 14.5377 163.242 14.5377C160.832 14.5377 158.971 16.9113 158.971 19.9205V27.2106C158.971 28.9907 159.394 29.457 161.128 29.7536C161.762 29.8808 162.016 30.0927 162.016 30.5589C162.016 31.0252 161.72 31.2371 161.043 31.2371H152.671C152.036 31.2371 151.698 31.0252 151.698 30.5166C151.698 30.0927 151.952 29.8808 152.628 29.7536C153.432 29.6265 154.024 29.3298 154.32 28.906C154.489 28.5669 154.531 28.1854 154.531 27.2106V18.1404C154.531 16.6146 154.277 16.0636 153.347 15.894C153.136 15.8093 153.136 15.8093 152.967 15.8093C152.671 15.6397 152.417 15.3854 152.417 15.0464C152.417 14.8344 152.586 14.6225 152.84 14.453L158.168 11.5709C158.21 11.5285 158.337 11.4861 158.421 11.4861C158.802 11.4861 158.971 11.6556 158.971 12.1642Z" fill="white"/>
<path d="M174.452 12.1642V27.2106C174.452 28.9483 174.833 29.4993 176.397 29.7536C177.032 29.9232 177.328 30.0927 177.328 30.5589C177.328 31.0252 176.989 31.2371 176.313 31.2371H168.279C167.602 31.2371 167.264 31.0252 167.264 30.5589C167.264 30.0927 167.475 29.8808 168.194 29.7536C168.955 29.5841 169.505 29.3298 169.716 28.906C169.928 28.5669 169.97 28.1854 169.97 27.2106V18.1404C169.97 16.6146 169.674 16.0636 168.786 15.894C168.532 15.8093 168.532 15.8093 168.406 15.8093C168.067 15.6397 167.814 15.3854 167.814 15.0887C167.814 14.8344 167.983 14.6225 168.279 14.453L173.564 11.5709C173.607 11.5285 173.691 11.4861 173.86 11.4861C174.156 11.4861 174.368 11.6556 174.452 12.1642ZM168.448 7.4596C168.406 7.33245 168.363 7.12053 168.363 6.99338C168.363 6.23046 168.786 5.46755 169.547 4.87417C170.52 4.11126 171.746 3.60265 172.846 3.60265C174.03 3.60265 174.748 4.15364 174.748 4.91656C174.748 5.67947 174.368 6.4 173.564 7.03576C172.592 7.84106 171.323 8.30729 170.224 8.30729C169.42 8.30729 168.744 7.96821 168.448 7.4596Z" fill="white"/>
<path d="M180.956 27.2106L180.999 26.3629V14.453C180.999 14.0715 180.956 14.0291 180.576 14.0291H178.758C178.335 14.0291 178.292 14.0291 178.25 13.6901L177.954 12.4609V12.3338C177.954 12.1219 178.039 12.0795 178.292 12.0795H180.28C180.745 12.0795 180.914 11.9099 180.914 11.4861C180.914 11.2742 180.83 10.9775 180.66 10.7232L180.364 10.0026C179.815 8.68874 179.307 6.90861 179.307 5.63709C179.307 2.4159 182.098 0.127153 185.946 0.127153C189.456 0.127153 191.95 1.90729 191.95 4.45033C191.95 5.97616 190.978 7.16291 189.583 7.16291C188.737 7.16291 187.933 6.73907 187.933 6.23046C187.933 6.1457 188.018 6.01854 188.229 5.89139L188.568 5.72185C188.991 5.42517 189.202 5.08609 189.202 4.45033C189.202 2.9245 187.976 1.78013 186.411 1.78013C184.551 1.78013 183.409 3.13642 183.409 5.25563C183.409 6.31523 183.747 7.41722 184.297 8.56159L184.931 9.8755C185.312 10.6808 185.439 10.9775 185.439 11.4861V12.0371H189.413C189.667 12.0371 189.794 12.0795 189.794 12.1642C189.794 12.249 189.794 12.3762 189.709 12.4609L189.413 13.6477C189.329 13.9444 189.287 14.0291 188.864 14.0291H185.904C185.481 14.0291 185.439 14.0715 185.439 14.5377V27.2106C185.439 28.1854 185.523 28.5669 185.692 28.906C185.988 29.3298 186.623 29.5841 187.595 29.7536C188.229 29.8808 188.483 30.1351 188.483 30.5589C188.483 31.0252 188.187 31.2371 187.511 31.2371H179.096C178.419 31.2371 178.123 31.0252 178.123 30.5589C178.123 30.0927 178.335 29.8808 179.054 29.7536C179.857 29.5841 180.449 29.3298 180.745 28.906C180.914 28.6093 180.914 28.3126 180.956 27.2106Z" fill="white"/>
<path d="M199.289 23.0146L196.498 21.9974L194.426 21.1921C191.593 20.0901 190.156 18.649 190.156 16.5722C190.156 13.6477 192.946 11.4013 196.498 11.4013C197.809 11.4013 198.866 11.5709 200.473 12.0371C200.981 12.1642 201.15 12.2066 201.277 12.2066C201.573 12.2066 201.869 12.0371 201.996 11.6132C202.249 11.1046 202.334 11.0199 202.63 11.0199C203.053 11.0199 203.179 11.147 203.56 11.8252L206.013 16.1483C206.139 16.445 206.266 16.6146 206.266 16.7417C206.266 17.0384 206.013 17.2503 205.717 17.2503C205.336 17.2503 205.082 17.0808 204.575 16.5298C202.63 14.3682 199.797 12.9695 197.429 12.9695C195.695 12.9695 194.384 13.9444 194.384 15.343C194.384 16.657 195.23 17.3351 198.993 18.5642L201.446 19.3695C206.139 20.9377 208 22.7179 208 25.6848C208 29.1603 204.955 31.8305 201.065 31.8305C200.05 31.8305 198.021 31.6185 196.414 31.1523C195.653 30.9404 195.568 30.898 195.357 30.898C195.103 30.898 194.849 31.1099 194.638 31.5762C194.426 31.9152 194.257 32 193.961 32C193.581 32 193.412 31.9152 193.031 31.3219L189.606 26.1086C189.437 25.8119 189.225 25.4728 189.225 25.2609C189.225 24.9219 189.521 24.6676 189.902 24.6676C190.198 24.6676 190.494 24.8795 190.875 25.4305C191.297 25.9815 193.158 27.4649 194.722 28.5669C196.202 29.5841 198.105 30.2199 199.797 30.2199C202.038 30.2199 203.475 28.9483 203.475 26.9563C203.475 26.4053 203.306 25.8967 203.053 25.4305C202.503 24.4556 201.7 23.9046 199.289 23.0146Z" fill="white"/>
</svg>
