<svg width="133" height="96" viewBox="0 0 133 96" fill="none" xmlns="http://www.w3.org/2000/svg">
<path d="M76.1631 54.2083V87.1626C76.1631 92.5297 77.7744 94.3546 82.9307 94.3546V94.8913H58.6531V94.3546C63.8094 94.3546 65.4207 92.5297 65.4207 87.1626V55.389C65.4207 35.8526 56.612 35.6379 43.5064 42.5079V57.5359C43.5064 67.5188 32.8715 79.5412 27.3929 86.0891C11.3869 105.196 5.15631 93.6032 5.15631 77.1797V37.4627H0V36.926H5.15631V24.6889L15.8986 20.0732V36.926H23.5257V37.4627H15.8986V82.7615C15.8986 91.671 14.1799 100.044 24.7073 87.914C32.5492 78.7898 32.7641 74.9255 32.7641 69.0216V11.0563C32.6567 5.58184 32.6567 5.04513 25.9964 7.7287V7.19199L43.5064 0V41.5418C60.4793 34.1351 76.1631 33.8131 76.1631 54.2083Z" fill="white"/>
<path d="M133 66.1233H90.5678C95.187 101.654 126.662 99.8291 132.033 78.2531H132.57C130.207 89.7388 119.465 95.9647 108.4 95.9647C92.9311 95.9647 80.1478 82.7615 80.1478 66.4454C80.1478 52.4908 88.9565 41.0051 100.558 37.8921C119.465 32.847 133 48.5191 133 66.1233ZM101.847 38.1068C92.1792 40.683 88.9565 53.0275 90.4604 65.5866H121.935C123.224 46.6942 114.416 34.7792 101.847 38.1068Z" fill="white"/>
</svg>
