<svg width="926" height="96" viewBox="0 0 926 96" fill="none" xmlns="http://www.w3.org/2000/svg">
<path d="M18.1777 71.406H0V71.0021C3.53902 71.0021 5.06723 70.4366 5.06723 65.5901V8.15837C4.9868 3.39259 2.81513 2.90794 0 2.82716V2.42328H18.1777V2.82716C15.3626 2.82716 13.1909 3.23104 13.1105 8.15837V65.5901C13.1105 70.4366 14.6387 71.0021 18.1777 71.0021V71.406Z" fill="white"/>
<path d="M81.1385 0V65.5901C81.1385 70.3559 82.9885 71.0021 86.2058 71.0021V71.406H73.0953V70.1943C71.8888 70.8405 70.441 71.4867 68.6715 71.8098C58.4566 73.9908 47.357 66.4786 44.7832 54.443C42.2898 42.5689 49.2069 30.7756 61.3522 28.1908C65.4542 27.3023 69.4759 27.7062 73.0953 28.9986V8.31993C73.0149 4.20035 73.0149 3.79647 68.0281 5.81587V5.41199L81.1385 0ZM69.2346 70.9213C70.7628 70.7598 72.0497 70.2751 73.0953 69.7097V29.8871C69.9584 28.2716 66.339 27.7062 62.9608 28.4331C43.7375 32.5527 52.3438 72.6176 69.2346 70.9213Z" fill="white"/>
<path d="M110.423 71.3252C128.199 67.2056 118.869 24.879 101.254 28.5947C83.8003 32.3912 92.5674 75.5255 110.423 71.3252ZM110.423 71.7291C98.3586 74.3139 87.2589 66.4786 84.6851 54.443C82.1917 42.5689 89.1089 30.7756 101.254 28.1908C113.319 25.6868 124.419 33.3605 126.992 45.3961C129.486 57.1086 122.086 69.3058 110.423 71.7291Z" fill="white"/>
<path d="M161.962 40.7919V65.5901C161.962 69.6289 163.168 71.0021 167.029 71.0021V71.406H149.655V71.0021C153.516 71.0021 153.918 69.6289 153.918 65.5901V41.6804C153.918 27.3023 147.645 27.06 138.556 31.8257V65.5901C138.556 70.3559 140.406 71.0021 143.623 71.0021V71.406H125.204V71.0021C128.26 71.0021 130.271 70.5174 130.271 65.5901V35.1375C130.271 34.249 130.191 32.6335 128.904 32.6335C127.939 32.6335 126.25 33.522 125.204 33.8451V33.4413L138.556 27.7869V31.0988C151.023 25.6868 161.962 25.5252 161.962 40.7919Z" fill="white"/>
<path d="M165.891 20.5979V20.194C172.487 18.1746 176.589 12.4395 176.83 7.99682C176.187 9.53157 174.819 10.7432 172.648 10.7432C166.535 10.7432 166.455 1.61552 172.648 1.61552C173.693 1.61552 174.498 1.85785 175.382 2.42328C181.174 6.13898 175.141 18.1746 165.891 20.5979Z" fill="white"/>
<path d="M200.181 62.6014L200.423 62.9245C186.508 79.8874 182.084 70.7598 182.084 57.8356V28.1908H178.223V27.7869H182.084V18.3361L190.127 14.8628V27.7869H195.838V28.1908H190.127V58.2395C190.127 64.7823 188.84 76.5756 200.181 62.6014Z" fill="white"/>
<path d="M239.64 27.7869V33.2797C244.708 28.9178 253.635 25.6868 257.738 29.3217L253.555 39.0956H253.394C256.209 24.7982 241.973 28.5139 239.64 36.0261V65.5901C239.64 70.3559 241.49 71.0021 244.708 71.0021V71.406H226.53V71.0021C229.586 71.0021 231.597 70.5174 231.597 65.5901V35.1375C231.597 34.249 231.517 32.6335 230.23 32.6335C229.265 32.6335 227.575 33.522 226.53 33.8451V33.4413L239.64 27.7869Z" fill="white"/>
<path d="M293.201 49.758H261.431C264.889 76.4948 288.456 75.1217 292.477 58.8857H292.879C291.11 67.5287 283.067 72.2137 274.782 72.2137C263.2 72.2137 253.629 62.2783 253.629 50.0003C253.629 39.4995 260.224 30.8564 268.911 28.5139C283.067 24.7175 293.201 36.5107 293.201 49.758ZM269.876 28.6755C262.637 30.6141 260.224 39.9033 261.35 49.3541H284.917C285.882 35.1375 279.286 26.1714 269.876 28.6755Z" fill="white"/>
<path d="M316.334 72.2137C304.751 72.2137 295.18 62.2783 295.18 50.0003C295.18 37.3185 304.269 27.6254 317.138 27.7869C319.229 27.7869 321.24 28.0293 323.17 28.5139C326.307 29.2409 330.972 29.9679 332.34 26.9792H332.822L334.431 41.1957H334.029C331.455 30.6949 320.999 26.2522 311.347 28.9986C302.178 31.5834 301.856 41.2765 302.901 48.7887C306.762 77.0603 329.846 74.8793 334.029 58.8857H334.431C332.661 67.5287 324.618 72.2137 316.334 72.2137Z" fill="white"/>
<path d="M361.46 71.3252C379.235 67.2056 369.905 24.879 352.291 28.5947C334.837 32.3912 343.604 75.5255 361.46 71.3252ZM361.46 71.7291C349.395 74.3139 338.295 66.4786 335.722 54.443C333.228 42.5689 340.145 30.7756 352.291 28.1908C364.355 25.6868 375.455 33.3605 378.029 45.3961C380.522 57.1086 373.123 69.3058 361.46 71.7291Z" fill="white"/>
<path d="M388.902 60.4204C417.214 51.0504 426.464 82.4723 402.575 93.4578C383.513 102.262 367.748 86.6726 387.374 70.0328V69.7097C385.604 70.1943 372.333 61.8744 387.132 55.3315C383.915 53.3121 381.824 50.1619 381.019 46.3654C379.411 38.5301 383.995 30.5333 394.452 28.2716C398.795 27.3831 402.575 27.7062 405.632 29.0794C406.919 29.6448 410.216 31.3411 410.94 30.6949C411.503 30.1294 411.021 28.11 406.195 25.9291L411.181 22.5365C417.375 25.6868 413.273 29.0794 410.136 32.1488C412.066 34.0067 413.353 36.5107 413.916 39.2571C415.525 46.9308 410.699 54.9277 400.564 57.1894C395.336 58.3203 390.832 57.5933 387.454 55.5739C379.169 59.3703 379.009 63.6515 388.902 60.4204ZM394.532 28.6755C383.432 31.018 388.58 59.5319 400.484 56.7855C413.353 53.8776 406.677 26.0099 394.532 28.6755ZM401.771 85.0571C424.131 74.9601 418.179 58.0779 388.741 69.3866C371.689 83.1185 381.824 94.0232 401.771 85.0571Z" fill="white"/>
<path d="M452.664 40.7919V65.5901C452.664 69.6289 453.871 71.0021 457.732 71.0021V71.406H440.358V71.0021C444.219 71.0021 444.621 69.6289 444.621 65.5901V41.6804C444.621 27.3023 438.347 27.06 429.259 31.8257V65.5901C429.259 70.3559 431.109 71.0021 434.326 71.0021V71.406H415.907V71.0021C418.963 71.0021 420.974 70.5174 420.974 65.5901V35.1375C420.974 34.249 420.894 32.6335 419.607 32.6335C418.642 32.6335 416.953 33.522 415.907 33.8451V33.4413L429.259 27.7869V31.0988C441.726 25.6868 452.664 25.5252 452.664 40.7919Z" fill="white"/>
<path d="M465.994 24.3136C463.098 24.3136 460.685 21.8903 460.685 18.9824C460.685 15.9936 463.098 13.6511 465.994 13.6511C468.97 13.6511 471.302 15.9936 471.302 18.9824C471.302 21.8903 468.97 24.3136 465.994 24.3136ZM457.066 71.406V71.0021C460.283 71.0021 462.133 70.3559 462.133 65.5901V36.1069C462.052 31.9873 462.052 31.5834 457.066 33.6028V33.1989L470.176 27.7869V65.5901C470.176 70.3559 472.026 71.0021 475.243 71.0021V71.406H457.066Z" fill="white"/>
<path d="M503.827 71.406H475.917L496.266 28.1908C482.512 28.1908 479.697 29.8063 476.399 42.5689H475.997L478.973 27.7869H505.355L484.925 71.0021C497.955 71.0021 503.907 68.8211 507.527 55.0084H507.929L503.827 71.406Z" fill="white"/>
<path d="M545.495 49.758H513.724C517.182 76.4948 540.749 75.1217 544.771 58.8857H545.173C543.403 67.5287 535.36 72.2137 527.076 72.2137C515.493 72.2137 505.922 62.2783 505.922 50.0003C505.922 39.4995 512.517 30.8564 521.204 28.5139C535.36 24.7175 545.495 36.5107 545.495 49.758ZM522.169 28.6755C514.93 30.6141 512.517 39.9033 513.643 49.3541H537.21C538.175 35.1375 531.58 26.1714 522.169 28.6755Z" fill="white"/>
<path d="M580.515 24.3136C577.62 24.3136 575.207 21.8903 575.207 18.9824C575.207 15.9936 577.62 13.6511 580.515 13.6511C583.491 13.6511 585.824 15.9936 585.824 18.9824C585.824 21.8903 583.491 24.3136 580.515 24.3136ZM571.587 71.406V71.0021C574.805 71.0021 576.654 70.3559 576.654 65.5901V36.1069C576.574 31.9873 576.574 31.5834 571.587 33.6028V33.1989L584.698 27.7869V65.5901C584.698 70.3559 586.548 71.0021 589.765 71.0021V71.406H571.587Z" fill="white"/>
<path d="M609.412 62.6014L609.653 62.9245C595.738 79.8874 591.314 70.7598 591.314 57.8356V28.1908H587.454V27.7869H591.314V18.3361L599.358 14.8628V27.7869H605.068V28.1908H599.358V58.2395C599.358 64.7823 598.071 76.5756 609.412 62.6014Z" fill="white"/>
<path d="M650.881 72.1329C633.91 74.0716 628.441 55.2508 649.112 46.9308C656.512 43.9421 661.74 39.9841 661.901 36.7531C661.659 23.7481 635.599 25.9291 647.262 44.9922L638.093 40.388C640.586 24.4751 670.024 22.2134 670.105 41.5996V60.9051C670.105 67.1248 670.266 70.1943 673.322 61.1474H673.724C670.185 73.91 661.981 76.5756 661.74 64.0553C660.212 68.0134 657.557 71.3252 650.881 72.1329ZM655.064 70.5174C659.086 69.225 662.062 65.3478 662.062 58.5626V37.8032C662.062 38.1263 661.901 42.3266 648.79 47.5771C638.334 51.7774 643.723 74.0716 655.064 70.5174Z" fill="white"/>
<path d="M708.178 40.7919V65.5901C708.178 69.6289 709.385 71.0021 713.245 71.0021V71.406H695.872V71.0021C699.733 71.0021 700.135 69.6289 700.135 65.5901V41.6804C700.135 27.3023 693.861 27.06 684.772 31.8257V65.5901C684.772 70.3559 686.622 71.0021 689.84 71.0021V71.406H671.421V71.0021C674.477 71.0021 676.488 70.5174 676.488 65.5901V35.1375C676.488 34.249 676.407 32.6335 675.12 32.6335C674.155 32.6335 672.466 33.522 671.421 33.8451V33.4413L684.772 27.7869V31.0988C697.239 25.6868 708.178 25.5252 708.178 40.7919Z" fill="white"/>
<path d="M704.807 95.9619L712.689 83.1993C721.376 86.915 722.824 83.0377 726.121 73.8292C726.202 73.5061 726.524 72.8599 726.282 71.6483L711.483 33.522C709.794 29.4832 707.3 28.1908 705.29 28.1908H704.646V27.7869H723.306V28.1908H722.1C719.687 28.1908 718.722 30.291 720.009 33.522L730.626 60.7435L736.095 44.9114C739.714 34.0875 737.221 28.1908 729.982 28.1908V27.7869H749.125V28.1908H748.562C746.471 28.1908 741.886 29.8063 738.347 39.5802L727.328 71.6483L727.167 72.0522L726.845 73.0215C720.411 90.3883 718.239 95.9619 704.807 95.9619Z" fill="white"/>
<path d="M804.073 40.7919V65.5901C804.073 69.6289 805.28 71.0021 809.141 71.0021V71.406H791.767V71.0021C795.628 71.0021 796.03 69.6289 796.03 65.5901V41.6804C796.03 26.5753 789.193 27.06 779.381 32.5527C780.507 34.5721 781.07 37.2377 781.07 40.7919V65.5901C781.07 69.6289 782.276 71.0021 786.137 71.0021V71.406H768.764V71.0021C772.624 71.0021 773.027 69.6289 773.027 65.5901V41.6804C773.027 27.3023 766.753 27.06 757.664 31.8257V65.5901C757.664 70.3559 759.514 71.0021 762.731 71.0021V71.406H744.312V71.0021C747.369 71.0021 749.38 70.5174 749.38 65.5901V35.1375C749.38 34.249 749.299 32.6335 748.012 32.6335C747.047 32.6335 745.358 33.522 744.312 33.8451V33.4413L757.664 27.7869V31.0988C766.914 27.06 775.279 26.0099 779.059 31.8257C792.169 25.6868 804.073 24.879 804.073 40.7919Z" fill="white"/>
<path d="M833.292 71.3252C851.068 67.2056 841.738 24.879 824.123 28.5947C806.669 32.3912 815.436 75.5255 833.292 71.3252ZM833.292 71.7291C821.228 74.3139 810.128 66.4786 807.554 54.443C805.061 42.5689 811.978 30.7756 824.123 28.1908C836.188 25.6868 847.288 33.3605 849.861 45.3961C852.355 57.1086 844.955 69.3058 833.292 71.7291Z" fill="white"/>
<path d="M861.183 27.7869V33.2797C866.251 28.9178 875.179 25.6868 879.281 29.3217L875.098 39.0956H874.937C877.752 24.7982 863.516 28.5139 861.183 36.0261V65.5901C861.183 70.3559 863.033 71.0021 866.251 71.0021V71.406H848.073V71.0021C851.129 71.0021 853.14 70.5174 853.14 65.5901V35.1375C853.14 34.249 853.06 32.6335 851.773 32.6335C850.808 32.6335 849.119 33.522 848.073 33.8451V33.4413L861.183 27.7869Z" fill="white"/>
<path d="M914.744 49.758H882.974C886.432 76.4948 909.999 75.1217 914.021 58.8857H914.423C912.653 67.5287 904.61 72.2137 896.325 72.2137C884.743 72.2137 875.172 62.2783 875.172 50.0003C875.172 39.4995 881.767 30.8564 890.454 28.5139C904.61 24.7175 914.744 36.5107 914.744 49.758ZM891.419 28.6755C884.18 30.6141 881.767 39.9033 882.893 49.3541H906.46C907.425 35.1375 900.83 26.1714 891.419 28.6755Z" fill="white"/>
<path d="M920.837 71.406C914.724 71.406 914.643 62.2783 920.837 62.2783C926.869 62.2783 926.869 71.406 920.837 71.406Z" fill="white"/>
</svg>
